<?xml version="1.0" encoding="utf-8"?>
<!-- Generator: Adobe Illustrator 19.0.0, SVG Export Plug-In . SVG Version: 6.00 Build 0)  -->
<svg version="1.1" id="Layer_1" xmlns="http://www.w3.org/2000/svg" xmlns:xlink="http://www.w3.org/1999/xlink" x="0px" y="0px"
	 viewBox="0 0 2517.3 318" enable-background="new 0 0 2517.3 318" xml:space="preserve">
<g>
	<g>
		<path fill="#7A3A15" d="M1274.8,113.8c8.2,2.8,16.4,2.4,24.4-0.7c4.8-1.9,7.9-5.4,8.8-10.6c1-5.7,2-11.6,1.5-17.4
			c-1.1-12.7-5.8-23.6-16-32.1c-15.7-13.1-34.2-17-56.1-17.1c-9.7-0.7-21,2.2-32.1,5.7c-8.4,2.6-16.4,6.4-23,12.7
			c-21.1,20.2-23.7,51.2-13.7,73.8c7.3,16.6,19.7,29.6,32.2,42.2c9.7,9.9,19.7,19.3,27.3,31.1c10.6,16.5,11.5,33.6,3.6,51.3
			c-1.5,3.3-3.2,6.7-6,9.1c-20.7,17.1-54.2,10.9-61.9-18.4c-3.7-13.9-3.2-27.6-0.4-41.5c1.3-6.4-0.8-10.5-6.6-13.4
			c-1.5-0.7-3-1.5-4.5-2.1c-12.4-5.1-26.6,0.3-30,11.8c-4.4,15-6.8,30.2-4.4,45.8c2.2,14.1,7.4,26.9,17.7,37.1
			c16.5,16.2,37.4,20.2,59.2,20.5c15.9,0.2,31.4-3.1,46.3-8.7c11.7-4.4,22.2-11.1,29.9-21c24.5-31.7,19.4-68.9-5.9-97.4
			c-10.6-11.9-21.8-23.4-32.5-35.2c-9.4-10.4-17.5-21.4-18.3-36.2c-0.8-14.4,2.6-25.5,15.3-33.4c12.5-7.8,32.1-0.4,36.3,13.7
			c1.7,5.5,2,11,1.3,16.7C1266.4,106.6,1269.7,112.1,1274.8,113.8z M1154.3,254.7c0.2,1.1-1.1,2.3-2.2,2.2c-1.8-0.1-2.6-1.9-3.3-3.3
			c-0.5-0.9,0.2-1.5,1.2-1.6C1151.4,253.1,1153.9,252.6,1154.3,254.7z M1136.4,233.5c0.7-1.9,1.8-3.6,2.2-5.8
			c1.4,1.8,0.5,4.1,1.9,5.8c0.6,0.7,0.9,1.9-0.3,2.6c-0.8,0.5-1.7,1.3-2.7,0.5C1136.4,235.8,1136,234.4,1136.4,233.5z M1137.8,244.3
			c-0.5,0.8-1.3,1.2-2,0.6c-2.1-1.9,0-3.5,0.3-5.5C1138.7,241,1139,242.5,1137.8,244.3z M1141.1,244.2c0.7-2.8,0.9-5.7,5.5-4.9
			c-1.4,2.4-2,4.9-1.6,7.5c2.1-0.7,4.1-1.6,3.8-4.9c2.5,2.8,1.9,5.4,0.4,7c-1.3,1.4-3.4,0.2-4.6-1.5c-2.5-0.1-3.3,4.7-5.4,2.9
			C1137.3,248.6,1140.6,246.3,1141.1,244.2z M1140.5,263.1c-1.5,0-1.8-1.1-1.8-2.4c0-1.2,0.2-2.3,1.6-2.7c2-0.5,2,1.1,2.5,2.3
			c2.4-4.5,4-4.6,8.3-0.6c-2.4,0.5-4.8,1-7.2,1.5C1144.1,264.2,1141.9,263,1140.5,263.1z M1156.5,269.4c-2.3,0.4-1.8,2.8-2.7,4.6
			c-1.9-1.6-5.2-1.9-0.9-4.9c2.3-1.6,3.1-5.6,3.1-9.1c0.4,0,0.9,0.1,1.3,0.1c0.5,2,1,4,1.5,6C1159.5,269,1159.5,268.9,1156.5,269.4z
			 M1164.5,267.3c1,0,1.8,1.1,1.6,2.1c-0.5,2.4-2.8,2.1-5.8,3.5C1161.9,270,1161.5,267.2,1164.5,267.3z M1166,281
			c-1.4-0.1-2.6-0.9-2.9-2.3c-0.2-0.9,0.6-2,1.7-2c1.6,0,2.1,1.4,2.5,2.7C1167.5,280.4,1166.9,281,1166,281z M1231.5,293.7
			c-1.2,0.1-2.6-1.2-2.4-2.6c0.2-1.4,1.7-2,3-2.2c1.3-0.2,2.1,0.7,2.6,1.8C1233.9,292.1,1232.9,293.6,1231.5,293.7z M1270.1,250.8
			c-1.2,0.4-1.3-1.2-1.3-2.1c0-2.9,2.6-3.5,4.5-4.5c0.9-0.4,1.6,0.1,1.5,1.4C1273.6,247.6,1272.5,250,1270.1,250.8z M1254.5,186.9
			c1.7,0,2.4,0.8,2.2,3c-0.1,0.9-0.2,3.1-1.6,3.1c-1.9,0-1.8-2.6-2.6-4C1252,187.8,1253.1,186.9,1254.5,186.9z M1253.4,207
			c2,0.1,1.5,1.8,1.8,2.9c-0.2,1,0.1,2.4-1.5,1.9c-1.4-0.4-2.8-1.2-2.8-3C1251,207.3,1252.2,206.9,1253.4,207z M1244.8,263.2
			c0.5-3,1.3-5.7,5.1-5.7c1-2.1-2.4-3.3-1.2-5.5l3-1.6c-1-1.1-0.8-2.4-1.1-3.7c-0.2-0.8-0.5-1.6,0.3-2.4c3.8,0.1,2.9,5.9,6.8,6
			c-0.6-1.7-2.1-3-2-5c-0.2-3.7,1.3-4.4,4.2-2.4c0.7,0.5,1.4,2.1,1.8,0.1c0.4-2.4,1.2-2.9,3.2-1.5c0.2,0.1,0.6,0.1,0.9,0
			c0.8-0.3,2.4-9.2,1.7-9.7c-3.1-2.2-2-3.5,0.8-4.9c3.6-1.9,5.7-4.5,3.3-8.7c-0.8,0.1-1.9,0-2.4,0.5c-4.9,5-6.9-0.6-9.9-2.6
			c1.3-1.8-0.9-3.8,0.3-5.6c0.4-0.6,0.8-1,1.6-0.8c0.7,0.3,1.2,0.8,1,1.5c-0.5,1.5-0.1,3.5,1.2,3c4.5-1.9,6.3,2.1,9.1,3.6
			c0.2,0,0.4,0.1,0.5,0.3c1.2,4,2.5,8,3.5,12.1c0.6,2.4-4.4,11.1-6.6,12.1c-3.9,1.7-4.5,4.3-3.2,8.1c0.6,1.6,4.5,4.7-0.8,6.2
			c-1.5,0.4-1.3,2,0.1,3.1c1.3,1.1,1.5,2.2-0.7,2.6l0,0c-2.6,2.2-1,5.5-2.1,8.2c-0.5,1.2-0.6,2.6-1.8,3.3c-1.6,1-3.3,1.6-5.1,0.9
			c-0.3-0.1-0.6-0.8-0.5-1.2c0.5-1.9,2.8-0.6,3.7-2.4c-2.7-1.8-4.6-6.3-8.8-1.9l0,0l0,1.7c1.2,0.5,3.3-0.1,2.9,2.3
			c-0.4,2.3-1.9,1.3-3.3,1.2c-2.2-0.1-4.5,1.2-6.6-0.3c-1.1-0.7,0.6-3.8-2.5-3C1239.5,268.7,1240.9,265.3,1244.8,263.2z M1259,237
			c0.1-3.1,3.3-1.4,4.9-2.5c1-0.7,1.2,1.4,1.3,2.5c0.1,2.1-1.1,2.4-2.8,2C1260.6,239.1,1258.9,238.7,1259,237z M1240.4,281
			c0.2,1.1,0.1,2.4-1.1,2.3c-1.6-0.2-2.2-1.8-2.5-3.3c-0.4-1.5,1-2.4,1.9-2.3C1241,277.7,1239.6,280,1240.4,281z M1238.6,265.7
			c-0.4,2.2-1.1,4.1-3.3,4c-0.7-0.1-2-1.4-1.6-2.7C1234.7,263.9,1237.1,266.6,1238.6,265.7z M1208.9,46.7c1.6-0.1,1.9,1.2,1.8,2.3
			c-0.5,3.6-4,1.7-6.1,3.9C1204.8,48.9,1205.8,46.8,1208.9,46.7z M1192.9,60.9c0.9-2.2,2.9-1.2,5.8-1.9c-2.2,2-2.4,4.5-4.9,3.9
			C1193.3,62.8,1192.7,61.4,1192.9,60.9z M1186.3,77.4c0.3-0.9,0.6-1.9,1.9-1.9c2-0.1,2.9-0.6,4-3.3c0.4,3.7,1.3,6.3-0.8,8.1
			c-0.7,0.6-2.5,0.1-3.7-0.2C1186.5,79.8,1185.9,78.8,1186.3,77.4z M1182.1,111.4c-0.4-1.4-0.7-3.2,1.2-3.8c1.6-0.5,3.4,0,4.3,1.5
			c0.6,1.1,2.1,2.7-1,3.3c-1.5,0.3,0.1,2.8-1.4,4.2C1182.9,115.6,1182.6,113.4,1182.1,111.4z M1190,130.7c-0.2,0.7-1.7,1.9-2.9,1.2
			c-2.7-1.6-0.7-4.2-0.9-6.4C1188.3,126.8,1190.6,128,1190,130.7z M1194.7,123.8c-0.4,1.9-1.1,3.5-3.4,3.4c-2.1-0.1-2.8-1.9-3-3.3
			c-0.5-3,1.4-0.9,2.3-0.9c0.2-2.4,0.9-4.4,3.8-4.8c1.4-0.2,2.1-1,0.5-2.1c-1.8-0.3-1.5-2-2.1-3.1c-0.5-0.3-1.6-0.8-1.6-0.9
			c1.5-4.2-1.8-5.4-4.4-7.1l0,0c0,0,0,0,0,0l0,0.1c-1.8,0.1-3.7,1.8-5.5,0c-0.9-0.9-3.3,0.2-2.9-2.3c0.3-2,0.8-3.9,3.5-3.8
			c0.3-0.3,0.5-0.6,0.8-0.9c-5-1.6-6.1-5.4-5.9-10.5c4,1.5,4.4,7.5,9.5,6.6c-0.5-2.3,4.6-3.3,1.4-6.2c-1-0.1-2-0.1-2.9-0.2
			c-1.1-0.1-2.8,1.2-3.1-1c-0.2-1.5,0.7-2.9,2.1-3.6c1.6-0.7,2.3,0.3,2.9,1.7c0.2,0.6,0.6,1.1,0.9,1.6c1.2-1.1-1-6.3,3.8-3.2
			c0.2,0.2,1.3-0.4,1.3-0.4c-1.1-3.7,5.2-4.7,3.2-8.9c-1.4-3,0.8-2.6,2.8-2.4c3.1,0.2,6.7,2,8.2-2.8c-0.8-0.6-1.6-1.2-2.3-1.9
			c-1.4-1.3-5.2,0-4.3-3.5c0.8-3.1,1.5-6.7,5.5-7.6c1.2-0.2,2.5-0.6,2.8,1c0.4,1.8-1.1,0.9-1.9,1.2c-1.2,0.4-2.1,0.8-0.9,2.4
			c1.8,2.5,1.3,5.6,1.8,8.4c-0.5,7.5-5.2,13.2-12.5,15.1c-2.8,0.8-2.1,3.6-3,5.4c4.4,1.9,3.6,5.6,3.1,9.2c-0.1,0.4,0.4,0.9,0.6,1.3
			c0.1,0.2,0.2,0.4,0.2,0.6c0,0.1-0.1,0.2-0.1,0.3c1.6,1.3,3.4,2.3,4.9,3.9c3.2,3.4,2.7,5.3-1.9,7c0,0.4,0,0.8-0.1,1.2
			c-0.8,3.3-1.5,6.6-2.3,9.9C1196.3,124.2,1195.5,124,1194.7,123.8C1194.7,123.8,1194.7,123.8,1194.7,123.8L1194.7,123.8z
			 M1201.4,86.6c-1.6,1.5-1.6,4.7-4.5,4.6c-0.8,0-1.5-0.9-1.1-1.8C1196.7,86.7,1199,86.5,1201.4,86.6z M1197.9,139.4
			c0.1-2.5-2.7-3.6-1.3-5.8c0.4-0.6,1.3-0.5,1.8,0.1C1199.8,135.2,1200.6,136.9,1197.9,139.4z M1196.4,125.8
			c2.9,0.2,5.3,0.3,8.2,0.4C1201.3,131.4,1199.2,128.7,1196.4,125.8z M1206.8,144.4c0.2,0.9-1,0.5-1.5,0.2c-0.8-0.5-1-1.1-0.5-2
			c1.2-2.1,2.1-4.4,5.2-5.4C1209.4,140.1,1206.2,141.4,1206.8,144.4z M1214.7,131.7c-0.8,0.8-0.8,2.4-2.3,2.4c-1.6,0-2.5-1-2.6-2.5
			c-0.1-1,0.2-2.4,1.3-2.3C1212.6,129.3,1214,130.2,1214.7,131.7z M1211.3,66c-0.3-0.1-0.6-2-0.2-2.7c1.4-2.2,3.2-0.4,4.9-0.3
			C1214.5,64.5,1213.6,66.8,1211.3,66z M1227.2,55.4c-1.6-0.4-3-0.9-2.9-2.5c0.2-2.2,2.3-0.7,3.5-1.2c1.4-0.7,1.9,0.5,2,1.8
			C1229.2,54.5,1229.3,56,1227.2,55.4z"/>
		<path fill="#7A3A15" d="M1707.7,247.2c-0.1-0.2-0.2-0.3-0.3-0.5C1707.5,246.9,1707.6,247,1707.7,247.2z"/>
		<path fill="#7A3A15" d="M2487.9,217.8c-5.2-2.7-7.2-2-10.3,3.6c-4.9,9.2-11,17.5-18.5,24.7c-6,5.7-13.1,9.7-21.2,11.6
			c-4.9,1.2-7.1-0.9-7-6c0.1-2.7,0.3-5.3,0-8c-1.3-13.1-3.6-25.8-7.6-38.5c-4.2-13.2-7.9-26.7-10.9-40.4c-1.6-7.3-1.6-13.4,2.2-19.9
			c4.9-8.3,1.9-16.1-6.6-20.4c-9.7-4.9-19.6-2.8-29.1,0.2c-14.3,4.5-23.6,15.9-33.2,26.4c-11.4,12.6-20,27.4-28.8,41.9
			c-9.8,16-17.6,33.2-29.1,48.2c-15.9,20.9-36.6,31.9-63.4,29.8c-17.4-1.4-27.6-11.4-29.7-28.7c-0.7-5.7,0.4-6.8,6.2-6.2
			c15.1,1.6,30.2,1.9,45.1-1.9c25.5-6.6,43-24.5,45.1-48.5c1.9-22.4-8.1-37.9-29.1-44.2c-17.3-5.2-35.2-4.4-52.2,1.3
			c-35.1,11.7-55,37.4-64.2,72.4c-1.3,4.9-0.6,10.5-3.6,14.8c-7.7,10.9-15.5,21.7-24.8,31.3c-3.7,3.8-7.5,7.6-12.7,9.4
			c-7,2.4-11.2-0.7-11-8c0.1-2.8,0.3-5.7,0.9-8.4c4.8-25.4,15.2-49.1,23.1-73.6c3.3-10.1,6.3-20.3,9.4-30.4c1.8-6,0.3-8.4-5.8-9.6
			c-11.2-2.3-22.4-3-33.7-1c-4.3,0.8-7.1,3-8.8,7.1c-5.3,13.4-9.5,27.3-13.9,41.1c-4.1,12.8-6.7,26.1-13.1,38.1
			c-7.7,14.6-17.9,27.1-29.2,39c-2.2,2.3-5,3.9-7.8,5.3c-5.6,2.6-9.7,0.6-10.4-5.4c-0.7-6.3-0.2-12.7,1.5-18.8
			c4.3-16.1,9.1-32,13.4-48c2.8-10.4,6.9-20.4,6.7-31.6c-0.2-13.5-10-26.3-23.4-28.3c-19-2.9-35.3,3.5-50.1,15.1
			c-6.2,4.8-11.9,10.1-17,16.2c-0.8,1-1.8,2.5-3.2,1.9c-1.3-0.5-1.2-2.2-1.1-3.6c0-1,0-2-0.1-3c-0.8-16.2-12.6-27.3-28.9-27.5
			c-16-0.1-28.7,7.2-40,17.7c-4.2,3.9-8.3,8-13.2,12.7c0.1-7.1,2.3-12.5,3.2-18.2c0.7-4.7-0.8-7.1-5.1-8.6
			c-10.6-3.6-21.3-3-32.1-1.8c-7.9,0.9-12.5,5.2-14.5,12.9c-1.9,6.9-4.5,13.6-6.1,20.5c-3.4,14.4-9.8,27.9-12.7,42.5
			c-0.2,0.8-0.5,1.6-1,2.3c-8,12.6-15.6,25.5-25.1,37.1c-4.9,6-9.8,11.8-16.7,15.5c-6.7,3.6-11.2,1.3-11.5-6.2
			c-0.2-5.3-0.2-10.8,1.2-15.9c5.3-19.9,10.7-39.8,16.8-59.5c2.3-7.5,3.5-14.9,3.6-22.5c0.1-11.9-9.2-24.6-20.6-26.9
			c-11.8-2.4-23.6-1.6-34.7,3.6c-12.8,6-23.8,14.5-33.2,25.1c-1.4,1.5-2.5,4.5-4.8,3.8c-2.4-0.8-1.2-3.8-1.3-5.8
			c-0.8-16.9-12.4-28-29.4-28.1c-15.8-0.1-28.3,7.3-39.5,17.6c-4.3,3.9-8.3,8-12.5,12c-0.3-0.3-0.7-0.5-1-0.8
			c1.1-5.7,2.1-11.4,3.4-17c0.9-4.1-0.5-6.5-4.5-8c-10.9-3.9-21.9-3.2-33-1.9c-7.8,0.9-12.1,5.3-14.1,12.7c-2.1,7.5-4.3,15-6.7,22.4
			c-7.3,22.3-11.8,45.7-25.9,65.4c-8.1,11.3-15.6,22.9-29,28.7c-8.4,3.6-13.7,0.1-13.9-9c-0.2-9.9,2-19.5,4.5-29
			c2.9-10.9,6.5-21.6,9.7-32.5c0.9-3.2,1.1-6.5-2.3-8.3c-10.6-5.8-21.6-9.6-33.9-7.1c-4.5,0.9-7.6,3.3-8.5,7.9
			c-1.2,5.9-3.4,11.5-5.7,17c-7.2,16.8-14.9,33.4-25.9,48.2c-3.9,5.3-8.8,9.6-14.7,12.6c-8.5,4.4-16.1,0.7-18.1-8.7
			c-1.4-6.8-1-13.7,0.5-20.3c3.6-15.7,10.3-30.1,18.9-43.7c7.1-11.1,17.6-18,29.1-23.6c3.9-1.9,8.3-3.2,12.9-3.5
			c17.8-1.4,34.3,2.7,49.8,11.5c10.7,6.1,12.8,5.6,20.9-3.9c0.5-0.6,1.1-1.3,1.6-1.9c5.1-7.1,5.2-10.4-1.2-16.4
			c-10.2-9.6-22.7-14.4-36.3-17.5c-18-4.1-36-4.4-53.9-0.8c-15.9,3.2-29.4,11.4-42.4,21c-17.1,12.6-29.9,28.7-39.3,47.1
			c-9,17.5-12.4,37-10.3,56.8c1,9.7,4.7,18.5,12.6,25.3c8.3,7.2,17.5,11,28.6,11.2c19.4,0.4,35.4-6.7,48-21.1
			c5.6-6.4,11.3-12.7,15.2-20.4c0.5,1.5,0.5,2.6,0.5,3.8c-0.4,7,0,13.9,1.8,20.8c2.3,8.6,8.5,14.7,17.4,15.5
			c17.6,1.7,33.3-3.1,46.4-15.2c4.6-4.2,8.9-8.5,13.5-12.9c0.4,0.7,0.5,0.9,0.5,1c-1.1,4.5-2.2,9-3.3,13.5
			c-2.3,9.3-0.2,12.9,9.4,14.6c10.2,1.8,20.4,2,30.7-0.7c5.5-1.5,8.7-4.3,10.1-9.6c5.9-23,12.6-45.8,19.6-68.5
			c6-19.4,15.9-36.2,34.5-46.4c4.6-2.5,9.5-3.2,14,0.1c4.4,3.3,3.4,7.9,2.3,12.3c-6.2,24.8-15.8,48.6-21.6,73.6
			c-2,8.6-5,16.9-6.7,25.5c-1.6,8.2-0.2,10.8,7.8,13.1c11.6,3.2,23,1.7,34.5-1.2c4.2-1.1,6.5-3.6,7.5-7.7
			c3.1-12.9,6.1-25.9,9.5-38.7c4.7-17.8,8.4-35.9,17.6-52.2c6.4-11.2,14.9-20.4,27.1-25.6c3.9-1.7,8.1-2.6,11.8,0.2
			c3.8,2.9,3.6,7.2,3,11.5c-0.1,0.7-0.3,1.3-0.4,2c-3.7,14.7-9.5,28.7-12.8,43.5c-2.8,12.5-6.9,24.7-8,37.5
			c-1.3,14.3,8.6,28.5,21.8,31.2c21.1,4.3,39.5-0.7,55-16c3.8-3.8,7.9-7.4,12.6-11.7c0.1,5.4-1.6,9.2-2.5,13.2
			c-2.2,9.3-0.2,12.9,9.4,14.7c10.4,1.9,20.8,2,31.2-0.8c5.4-1.5,8.3-4.4,9.6-9.5c5.9-23,12.6-45.8,19.6-68.5
			c6-19.4,15.9-36.2,34.5-46.4c4.6-2.5,9.5-3.2,14,0.1c4.5,3.3,3.5,7.9,2.4,12.3c-6.1,24.8-15.8,48.6-21.7,73.6
			c-2,8.7-5.1,17.2-6.8,26c-1.4,7.4,0.2,10.3,7.4,12.5c11.7,3.5,23.3,1.9,34.9-1c4.2-1.1,6.6-3.5,7.6-7.6
			c3.1-12.9,6.1-25.9,9.5-38.7c4.7-17.8,8.4-35.9,17.6-52.2c6.3-11.1,14.8-20.1,26.6-25.5c4-1.8,8.4-3,12.3,0c4,3,3.6,7.5,2.9,11.9
			c-0.1,0.7-0.2,1.3-0.4,2c-3.8,14.5-9.4,28.4-12.7,43c-2.8,12.5-6.9,24.7-8,37.5c-1.3,14.4,8.6,28.6,21.7,31.2
			c21.1,4.3,39.5-0.7,55-16c4.9-4.8,10-9.4,15.7-14.7c0,3.1-0.1,5.1,0,7c0.6,10.9,6.8,19.9,15.9,22.7c14.6,4.4,29.1,3.6,42.7-3.3
			c8.4-4.3,15.6-10.7,22.8-17c7.1-6.2,12.7-13.8,19.3-20.7c0.5,1,0.8,1.6,1,2.2c8.1,23.9,25.2,36.7,49.7,40.4
			c11.7,1.8,23.3,0.5,34.8-0.9c9.4-1.2,18.7-2.9,27.3-7.4c26.4-13.9,44.1-36,57.8-61.7c9-16.9,18.5-33.5,29.2-49.3
			c4.8-7.2,9.3-14.6,15.4-20.8c1.2-1.2,2.2-2.6,4.2-2c1.7,0.5,1.8,2.1,2.1,3.6c0.4,2.6,0.7,5.3,1.3,7.9c4.7,20.1,9.3,40.1,14.2,60.1
			c1.1,4.5,0.2,7.8-4.1,10c-3.6,1.8-5,4.9-6,8.7c-1.2,4.8,0.8,8.5,2.7,12.3c1.9,4,1.2,6.8-2.8,9c-6.6,3.8-16.2,1.6-21.5-4.8
			c-4.3-5.2-6-11.4-8.1-17.5c-0.9-2.7-1.9-5.4-5.1-6.3c-9.7-2.7-26.8,8.2-23.8,20.1c1.6,6.6,3.3,13.3,7.5,18.9
			c13,17.1,30.2,24.3,51.5,21.6c2.6-0.3,5.3-0.5,7.9-0.8c14.1-1.7,26.9-6.4,36.9-16.8c3.7-3.8,7.7-5.8,13-6.4
			c11.5-1.2,22.9-3,32.3-10.4c13.1-10.3,23.4-23.1,30.1-38.5C2494.6,223.2,2493.8,220.8,2487.9,217.8z M2231.5,229.9
			c-1.1,0-2.4-0.2-2.7-1.5c-0.3-1.3,0.9-1.5,1.6-1.9c1.2,0.6,3,0.4,3.1,2C2233.7,229.4,2232.5,229.9,2231.5,229.9z M2242.6,229.1
			c-0.9-0.6-1.9-1.6-0.7-2.9c1.9-1.9,3.8-1.6,6.4,0.5C2246.1,227.7,2245.5,231,2242.6,229.1z M2245.9,203.4c0.7-3,3-0.4,4.4-1.2
			c-0.6,1.8-0.4,4.3-3,3.6C2246.4,205.5,2245.6,204.4,2245.9,203.4z M2251.7,219.9c-3.8-3.9-3.8-3.9,1.3-8.2
			C2252.3,215,2253,217.5,2251.7,219.9z M2260.8,210.8c-2.2,0.1-4.3,0.2-6.6,0.4c0.2-1.5,1.9-1.8,1.7-3.1c-1.8-0.9-5.3,3-5.4-1.3
			c0-1.8,1.5-5.3,4.8-5.7c0.5-0.1,1,0.1,1.6,0.2c-0.3,2.1-2.8,2.3-3.4,3.9c-1,2.2,0.9,0.7,1.4,1c1.9-0.2,3.8-0.3,5.1,1.5l0,0l0,0
			c0.2,0,0.3-0.1,0.5-0.1c1.8,0.3,5-1.6,5.1,1.6C2265.8,213,2262.3,209.9,2260.8,210.8z M2260.2,194.4c1.7-0.1,3.1,1.5,3.3,3.2
			c0.1,1-0.8,2.2-1.7,4.6c-0.3-5.4-4.6-0.1-4.9-3.5C2256.7,196.8,2258.1,194.6,2260.2,194.4z M2281.4,176.5c0.8,1.6,0.8,3.3,0.2,4.7
			c-0.5,1.2-0.1,3.9-2.6,3.1c-1.8-0.7-1.6-2.7-0.8-4.3C2278.9,178.5,2279.5,176.9,2281.4,176.5z M2251.2,148c1.9-1.8,3.3,0.5,5,0.8
			c-1.5,0.9-2.7,3-4.7,1.3C2250.9,149.6,2250.7,148.5,2251.2,148z M2249.4,156c0.6-0.5,1.1-0.4,1.5,0.4c1.3,2.4,3.8,1.1,5.4,1.2
			c3.6,0.2,0.7-2.6,1.1-3.9c5.2-1.3,9.2,0.2,13.4,3.4c5,3.8,8.2,10.7,6.7,16.9c-0.5,1.8-2,2-2.9,3.1c-2.1,5.8,2.6,9.1,5.3,13.4
			c-1.8,0.7-4.4,0.7-3.9,3.6c4.4,2.5,1.4,3.7-0.8,5.1c1.1,7.3-0.9,14-7.8,11.5c-0.2-2.9,3.8-1.1,3.7-3.8c-2.2-2.3-4.9-4.3-9.3-1.1
			c1.4-3.9,7.8-5.2,3.1-9.6c0-0.3,0-0.5,0-0.7c-1.1-0.7-2.4-1.2-3.2-2.1c-0.9-1-2.8-1.9-1.9-3.5c0.8-1.4,2.6-0.9,4-0.6
			c0-0.2,0-0.5,0-0.7c-1.9-0.9-3.5-2.1-3.8-4.6c5.1,0.8,8,3.6,7.8,7.4c0,0.3,0,0.7,0,1c1.3-0.1,2.6-0.3,3.9-0.4c0-0.2,0-0.4,0-0.5
			c-1.3-2-5-3.6-0.7-6.5c0.9-0.6-0.6-2-1.2-2.9c-0.6,0.1-1.3,0.2-1.9,0.4c-1.2,0.3-2.7,1.5-3.7,0.3c-1.2-1.6,0.9-2.5,1.5-3.7
			c-0.5-0.7-0.4-1.3,0.2-1.8c-4.2-2.4,2.3-3.6,0.7-5.7c1.8-0.7,2.7,0.4,3.5,1.8c0.2-0.3,0.5-0.7,0.7-1c0.4-2.5,1.9-5.2-2.9-5
			c-2.8,0.1-1.6-2.2-1.1-3.6c0.9-2.6,1.7-5.1-0.4-7.4c-2.2-2.4-4.5-2.1-5.1,0.9c-0.7,3.7-1.9,3.9-5.5,3.8c-3.2-0.1-4.7-1.2-6.4-3
			C2248.9,157.2,2248.8,156.5,2249.4,156z M2243.2,159.7c2.4-0.7,3.3,1.4,4.4,3c-1.9,0.8-3.8,2-5.4-0.1
			C2241.3,161.5,2242.5,159.9,2243.2,159.7z M2227.8,147.4c2.7-0.7,3.5,1.7,5.2,3.9c-2.6-0.9-5,1.4-6.6-1.2
			C2225.8,149.3,2226.8,147.6,2227.8,147.4z M2198.3,208.8c4.1-13,9.5-25.3,21.1-33.6c5.5-3.9,11.1-7.1,18.5-5.4
			c5.9,1.4,8.4,4.1,8.2,10.4c-0.3,14.1-13.9,29.7-27.8,32c-5.1,0.8-10.1,2.1-15.3,2.1C2199.2,214.2,2197.3,212,2198.3,208.8z
			 M1412.3,159.3c-0.1-0.3,0.7-1.2,1.2-1.2c2.6-0.3,3.5,1.6,4,3.8C1415.5,161.3,1413,161.9,1412.3,159.3z M1459,163.2
			c1.7,0.6,3.8,0.7,3.6,3.1c-0.1,1-1.2,2-2.1,1.6C1458.4,167.1,1458.3,165.4,1459,163.2z M1445,149.4c2.2-0.3,4.4-0.7,6.5-0.7
			c1.2,0,2.8,0.8,2,2.6c-0.6,1.2-1.6,2.4-3.1,1c-1.6-1.5-3.5-1.6-5.6-1.1L1445,149.4z M1437.9,152.3c2.9-0.6,6.1-1.5,8.2,1.7
			c0.5,0.8,0.3,1.5-0.7,1.9c-1.2-0.3-1.7-2.4-3.3-1.3c-1.1,0.8-3.7,0-3.2,2.8c0.2,1.3-0.3,2.6-1.7,2.5c-2.2-0.1-0.3-1.8-0.7-2.6
			C1435.2,155.1,1434.7,152.9,1437.9,152.3z M1420,146.6c3.9-0.8,2.1,4.2,5.2,3.7c-0.5,1.4-1.8,1.5-2.9,1.8
			c-2.1,0.5-2.6-0.8-2.5-2.5C1419.8,148.4,1419.1,147,1420,146.6z M1397.6,149.3c-0.1-0.9,0.3-2,0.3-3c0.1-1.1,0.8-1.3,1.7-1.3
			c1.3,0,2.3,0.5,3,1.5c0.4,0.6-0.1,1.2-0.8,1.6c-5.2,3.2-2.8,7.1-1,10.9c0.3-2,0.7-4,1-6.1c0.2-0.9,0.5-1.9,0.7-2.8
			c2.7-1.6,0.1-6.2,4-7.1c1.3-0.3,2.3-2.6,3.7-1.1c1.5,1.6-0.6,2.5-1.4,3.5c-0.4,0.5-0.6,1.1-1,1.6c2.7,1.3-0.1,2.5-0.1,3.8
			c1.4-0.3,2.2,2.3,3.9,0.8c1.4-1.2,1.3-2.6,0.6-4c-0.5-0.9-1.1-1.9,0.2-2.4c0.6-0.2,1.6,0.1,2.3,0.4c1,0.5,1.6,1.4,0.8,2.4
			c-1,1.2-2.5,2.5,0.8,2.1c0.9-0.1,1.7,0.2,1.5,1.3c-0.4,3,1,3.1,3.2,2c1.2-0.5,2.2-0.6,2.7,1c0.3,1.1,1.1,1.1,1.9,0.6
			c1.2-0.8,2.3-4.3,3.7-1c0.9,2,4.1,4.5,1.5,7c-1.7,1.6-4.1,1.4-6.8,0.2c-3.8-1.7-5.8-5.9-10.2-6.7c-1.2-0.2-2-1.1-2.3,1
			c-0.7,3.9-3.6,4.4-6.9,3.6v0v0c-0.3,0.3-0.6,0.6-0.9,0.9c-1.7,2-3.3,4.1-5.1,5.9c-2.5,2.5-4.2,0.3-5.9-1c0.3-2.3,3.4,0.6,3.1-2.1
			c-0.3-2.7-1.4-5-5.1-5.4C1397.7,158,1398.3,154.2,1397.6,149.3z M1395.1,148.9c2.3,2,0.9,4.8-2.3,5.9c-0.5-2.3-2.4-2.6-4.9-2.8
			C1390.2,149.1,1393.2,147.2,1395.1,148.9z M1376.1,152.6c1.2-0.5,3.3-0.6,4.2,0.1c1.1,0.8-1,2.1-0.7,3.4c1.7,0.5,4.2-3.5,5.3,0.8
			c2.2,1.2,2.6,5.2,6.3,4.3c0.9-0.2,1.1,1,0.7,1.9c-0.4,1-1.1,1.1-2,0.7c-2.9-1.3-5.9-1.8-9-1.8c-0.4,1-1.3,2.1-2.1,1
			c-1.4-2-4.7-3.2-3.1-6.6C1375,155,1374.2,153.4,1376.1,152.6z M1374.6,173.5c1.8,0.3,3.6,0.1,6-0.3c-1.2,2.5-3.8,1.6-4.5,3.7
			c-0.4,1.3-1.6,0.7-2.4,0.2c-0.4-0.3-0.8-1-0.8-1.6C1372.9,174.5,1373.7,173.4,1374.6,173.5z M1363.3,169.7c0.4-0.7,1-1.3,2-0.7
			c1.7,1.1,4.1,1.4,4.5,4.6c-2.3-0.6-3.1-3-5.4-2.5C1363.4,171.3,1362.7,170.8,1363.3,169.7z M1431.6,223.4c2.5-0.4,0.9,1.9,1.6,2.3
			c0,1.9,0,3.4-2.2,3.3c-1.7-0.1-2.1-1.1-2.1-2.7C1428.9,224.5,1430.2,223.7,1431.6,223.4z M1425.6,283.1c-1.7,0-2.6-1.2-2.8-2.8
			c-0.1-1.1,0.3-1.9,1.4-2.2c1.9,0.3,2.1,1.8,2.4,3.2C1426.8,282.1,1426.7,283.1,1425.6,283.1z M1431.1,272.7c-2,3.2-4-0.3-6.6,0.6
			c1.9-2.4,3.5-4,5.9-3.1C1431.3,270.6,1431.8,271.6,1431.1,272.7z M1429,255c-0.3,0.3-0.5,0.7-0.7,1c0,0,0,0,0,0c1.4,1,2.8,2,2.6,4
			c-0.3,3.5-4,5.1-4.5,8.6c-0.1,0.8-2.1,1.5-2.3,0.4c-1.1-4.5-3.6-2-6.2-0.9c0.5-2-2.1-4.9,2.7-4c1.9,0.4,4.2-1.4,6.2-2.2
			c-0.9-2.1-2.8-3.1-4.6-4.1c-1.6-0.9-3.7-1.8-2.4-4.4l0.2-0.4c-2.3,0.2-3.7-1.1-4.4-3c-0.4-1.3,0.8-2.1,1.8-2.5
			c1.6-0.7,3.2-0.9,3.5,1.6c2,0,3.6,0.8,4.9,2.2c1-1.5,0.7-4.6,4-3.1c2.6,0.9,2.9,3.5,2.9,5.5C1432.7,255.3,1430.4,254.9,1429,255z
			 M1433.6,245.4c-0.5,1.2-2,0.8-2.4-0.1c-1.4-3.8-4.4-4.6-9.4-3.9c3.6-3.7,7.4-4.5,9.5-7.5c0.9-1.3,3.1-0.8,3.9,0.5
			c1.2,1.9-1.1,1.9-1.9,2.4c-1.4,0.9-2.4,2.3-2.2,3.6c0.2,1.6,1.9,1.5,3.2,0.9c0.7-0.3,1.3-0.2,1.6,0.6
			C1436.5,243.9,1434.2,244.1,1433.6,245.4z M1543.2,191.7l0.2-0.3l0.1,0.4L1543.2,191.7z M1539.8,179.8c-0.4-2.8-5.2-1.3-3.7-5
			c1.6,0.1,3.7,0.2,5.9,0.3c2.2,0.1,3.2,0.8,1.8,3.1c-0.4,0.8-0.5,1.7-0.8,2.5c0.3,1.7,2.1,2.3,2.9,3.8
			C1540.9,184.5,1540.5,184.5,1539.8,179.8z M1563.6,162.2c-1.2,0.6-2.4,1.3-3.6,1.9c-1,2.8-2.2,4.9-5.2,1.7c-3.1,1.5-6.4,4.3-9-0.7
			c-1,0.7-3.2,0.4-2.7,2.1c0.6,2.1,1.3,3.6-1.8,3.5c-1.5-0.1-3.7,1.5-4.4-0.8c-0.6-2-0.6-4.5,1.7-5.7c2.3-1.2,3.5-4.4,7.1-3.7
			c1.1,0.2,3.7-1.6,3.2-3.5c-1-4.4,1.5-5.2,4.8-5.4c2.3-6,5.3-0.9,8-0.5c3.8,0.7,4.8,3.9,5.3,6.8
			C1567.5,159.8,1566.8,162.5,1563.6,162.2z M1631.6,157.1c2,0,2.6,1.2,2.1,2.9c-0.4,1.4-0.1,3.8-2.2,3.7c-2.9-0.1-1.3-2.9-1.9-4.3
			C1629,158,1629.7,156.8,1631.6,157.1z M1623.2,176.4c0.9-0.8,1.9-0.5,2.8-0.2c1,0.3,1.1,1.6,0.6,2.1c-1.6,1.8,0.6,3.8-0.5,6.2
			c-1.4-2.4-2.4-4-3.3-5.7C1622.5,178,1622.5,177.1,1623.2,176.4z M1614,224.3c2.7-0.3,1.4,1.9,1.8,3.1c-0.2,1,0.8,2.8-1.1,2.6
			c-1.5-0.2-3.1-1.7-3.3-3.2C1611.2,225.6,1612.6,224.4,1614,224.3z M1613.9,231.6c2.2,0,4.3,2.1,3.5,4.4c-0.7,2-3.8,1.8-5.6,3.2
			c-0.6,0.5-0.9-1.7-1-3C1611.3,234.5,1611.1,231.6,1613.9,231.6z M1621.2,245.5c-0.7,2.5-1.9,4.5-4.5,3.2c-1.2-0.6-6.2-1.6-0.7-3.6
			C1617.5,244.6,1619.2,246.9,1621.2,245.5z M1605.2,251.5c-1.5-2.8,2-3.2,2.8-5c0.7,2.1,2,4.2-0.6,5.6
			C1606.9,252.3,1605.5,251.9,1605.2,251.5z M1611.9,260c-0.6,1-0.6,2.8-2.5,2.8c-0.9,0-1.8-0.3-1.1-1.3c0.7-1.1,0.4-3.2,2.3-3.3
			C1611.5,258.1,1611.9,258.9,1611.9,260z M1610.1,249.5c0.1-2.3-1.1-4.8,0.7-7c0.2-0.3,1-0.4,1.3-0.2c0.3,0.1,0.6,0.9,0.5,1.1
			c-1.9,2.9-0.1,5.1,2,7.2C1612.3,251.6,1610.1,251,1610.1,249.5z M1615.8,252.9c1.9,1.7,3.3,3.1,4.8,4.5
			C1616.1,259.2,1616,259.1,1615.8,252.9z M1624,267.7c0.3,1.1,0,2.3-1.6,2.5c-0.9,0.1-1.8,0.1-2.2-0.7c-0.5-1-0.8-2.7,0.2-3.2
			c2-0.9,1.9-3.8,4.9-4.4C1624.8,264.3,1623.5,265.7,1624,267.7z M1634.2,219.7c-0.7,0.9-1.6,2-2.8,0.7c-1.1-1.2-1-2.5,0.3-3.4
			c1.4-1,3-2.2,5-1.5C1636.5,217.3,1635.2,218.4,1634.2,219.7z M1631.2,213.2c-2.9,1.1-4,4.5-2.4,7c0.8,1.2,0.9,2.8,1.8,3.8
			c2.3,2.5,0.3,1.5-1,1.6c-1.1,0.1-1.4,1.3-1.7,2.2c1.1,0.5,3.6,1.1,2.5,2.2c-3.8,3.9,6.4,11.9-4.8,13.5c3.7-4.4,0.4-4.9-2.5-5.5
			c-1.3-0.3-2.6-0.1-2.3-2.2c0.3-1.9-1.3-3.2-2.5-4.5c2.9-2.3,8.2,5.9,9.5-2.3c-0.6-0.7-1.3-1.4-1.9-2c-0.1,1.3,1.1,3.4-1,3.7
			c-2.6,0.3-3.8-2-5-4c-3.7-3.1-8.1-5.9-6.7-12.3c3.8,1.2,3.7,6.5,7.6,7.3c-0.3-2.3,6.7-2.2,2.1-6c-1.6-0.3-3.7,1-4.8-1
			c-0.8-1.5,0.9-2.2,1.7-3c-1.1-2.2,0.6-3,2.1-3.9c0.8-4.8,4-1.7,6.2-1.9c0.7,0.1,1.3,0.1,2,0.2c2.4-0.3,2.4-1.5,0.9-3
			c-2.7-2.7-1.1-3.7,1.7-4c3.6-0.5,5.6-2.5,6.1-6c-0.7-0.4-1.6-1.2-2.1-1c-5.6,2.3-7-1.5-8.3-5.6c-0.7-2.2,0.9-3.7,1.8-5.1
			c0.9-1.3,2.4-0.3,2.4,1.5c2.7,1.7,5.4,3.4,5.2,7.2c0.4,0.6,0.7,1.2,1.1,1.8C1642.5,198.9,1638.3,210.5,1631.2,213.2z
			 M1640.6,185.3c-1.8-1.1-3.8-1.3-3-3.6c0.3-1,1.3-1.7,2.3-1.2C1641.7,181.5,1640.9,183.2,1640.6,185.3z M1732.8,170.4
			c2.3,0.1,1.9,2.2,1.9,4.2c-1.1-2.3-4.5,1.1-4.8-2.1C1729.8,171,1731.7,170.3,1732.8,170.4z M1710.6,182.5c2.7,1.5,5,1.6,7.8,1.1
			c-6.6,8-6.6,8-10.2,8C1713.2,189.6,1712,186.4,1710.6,182.5z M1713,179c1.3-2.5,5.2-2.1,5.2-5.5c0-0.9,1.1-0.4,1.6-0.1
			c0.7,0.4,1.6,1.2,0.7,1.9C1718.4,177,1716.8,180,1713,179z M1722.4,186.5c-2.1,1.6,2.8,5.4-1.7,6c-1.7,0.2-3.4-1.2-3.4-3
			C1717.4,186.5,1720.3,187.1,1722.4,186.5z M1722.1,176.8c-0.5-0.1-0.4-1.1,0.1-1.7c0.7-0.7,1.8-1.6,2.6-1c1.8,1.3,3.9,1,6.7,1.4
			c-2.3,2.2-4.4,3.5-4.7,6.1C1723.9,181,1724.7,177.3,1722.1,176.8z M1727.7,160c0.1,0.3,0.2,0.6,0.2,0.9v0v0
			c1.5,2.7,1.8,5.6,1.1,8.5c-0.2,1,0.3,2.8-1.5,2.4c-1.5-0.3-1-1.8-0.9-2.9c0.3-2.3,0.9-4.5,0.2-6.8c-0.3-0.4-0.7-0.7-0.8-1.1
			c-0.5-1.6-2.3-3-1.1-4.9c0.3-0.4,1.2-0.9,1.6-0.7C1728.9,156.4,1727.1,158.5,1727.7,160z M1725.4,150.4c1-0.5,1.8,0.2,2.4,1.1
			c-0.5,1.8-2.1,2-3.5,2.3c-1.1,0.3-2.7,0.3-2.7-1.2C1721.7,150.3,1724.1,151,1725.4,150.4z M1710.1,158.5c1.6-0.2,2.3-1.3,0.9-2.8
			c-0.7-0.7-1.6-1.5-0.7-2.5c0.9-1,2-0.6,3.2-0.3c4.7,1.2,8.5,6.9,8.1,12.9c-5.8-6.5-8.2-7.1-12.4-2.8
			C1708.8,161.2,1704.8,159.2,1710.1,158.5z M1708.5,194.4c1.5,0,2.5,0.8,3.3,1.9c1.1,1.5-0.7,1.9-1.2,2.8c-1,1.7-3.1,2.7-2,5.5
			c0.9,2.3-1.4,3.2-3.2,3.1c-3-0.1-1.5-1.6-0.9-3.1c0.4-1-0.6-2.4-0.9-3.7C1702.8,198.1,1705.7,194.4,1708.5,194.4z M1710.7,222.1
			c2,0.3,3.7,0.2,4.3,3c1,4.3-2.8,5.2-4.6,7.4c-1.5,1.8-3.4,0.4-4.9-0.6c-3.6-2.4-2.7-13.5,1.2-15.4c0.3-0.1,0.7-0.4,0.9-0.3
			c2,0.8,4-4.6,6-0.1c1,2.4,0.4,2.9-5.6,4.7C1709.2,221.4,1709.9,222,1710.7,222.1z M1704,210.1c1.7,0.3,1.9,1.6,2,2.9
			c0.1,1.5-0.5,2.9-1.9,2.9c-1.9-0.1-1.6-2.2-2-3.5C1701.8,211.2,1702.6,210.2,1704,210.1z M1701.7,222.1c-0.1,3.7-4,6.3-0.8,9.8
			c-2.7,0.5-4.6-0.7-4.6-2.4C1696.4,226.4,1698.5,224,1701.7,222.1z M1696.1,271.5c-2.4,0.1-1.2-2.2-1.2-3.5c0-1.4-0.5-2.9,0.5-4.2
			c2.3,0.6,1.8,2.5,1.9,4.1C1697.3,269.2,1698,271.4,1696.1,271.5z M1708.6,285.1c-1.5-1.4-2.8-2.5-4-3.7c-0.7-0.7-2.3-1.5-1.1-2.7
			c1-1.1,2.5-0.7,3.5,0.3C1708.6,280.5,1710.1,282.2,1708.6,285.1z M1710,266.3c-1.2,0.3-3.3,0.3-3.4-1c-0.3-2.9,2.6-3.4,4.8-4.4
			C1710.6,262.6,1713.4,265.4,1710,266.3z M1716.2,251.8c-0.3,1.7-2.8,2-4.4,2.3c-1.8,0.4-3-0.9-3-2.9c-2.1-0.4-5.5-3.5-4.4,2.4
			c0.2,0.9-1.3,2.3-2.6,2.6c-1.1,0.3-1.9-0.5-2.4-1.3c-1.1-1.8,0.7-2.1,1.6-2.9c0.8-0.8,1.6-1.6,0.8-2.9c-2.4,0.2-4.6,2.3-7.1-0.6
			c-2.8-3.2-2.7-3.8,1.2-5.9c2.3-1.2,3.5-4.4,6.9-2.4v0l1.5-0.2c-1.5-1.3-2.9-2.5-4.4-3.8c5.2-2.5,7.2-1.1,7.8,5.6
			c0.2,1.8,0,3.6,0,5.4c1,0.7,2.1-1,3.1,0c1,0.2,2.4-0.1,3,0.5C1714.9,248.8,1716.4,250.6,1716.2,251.8z M1716.3,240.1
			c-1.3-0.7-2.8-1.4-4.3-2.2c-0.4-0.2-0.9-0.9-0.8-1.1c1.1-2.4,5.3-1,5.5-4.5c1.5,1.1,4,1.1,4,3.7
			C1720.7,238.9,1718.7,239.6,1716.3,240.1z M1721.1,201.9c1.3,3.2,3.6,6.1,3,10c-0.2,1.3-0.1,2.8-1.3,3.6c-3.4,2.2-2.9,5.5-2.3,8.6
			c0.3,1.7,0.3,3-1.4,3.7c-1.3,0.6-2.9,0.2-1.9-1.3c2.4-3.9,0-6.3-2.6-9.1c4.6-0.5,5.5-2.8,4.5-6.6c-1.3-4.6-4.4-4-7.9-3.1
			c-0.3-1.4,1.3-2.8-0.2-4.1c-1-0.8-1-1.6,0.3-2.2c2.6-1.2,5.1-2.1,3.8-6c-0.4-1.2,1.3-1.5,2.6-1.4c8.2,1,8.2,1,11.1-6.8
			c0.3-0.9,0.3-2,0.8-2.9c0.8-1.6,0.6-3.8,2.6-4.5c0.9-0.3,1.1,0.7,1.2,1.2c0.5,2.2,1.6,4.8-0.3,6.5c-3.8,3.3-4.5,6.5-0.6,10.1
			c-1.4,1.2-2.7,0.8-3.5,0.1c-3.4-3.1-5.3,1.4-8,1.7C1719.5,199.6,1720.8,201.1,1721.1,201.9z M1820.4,191.8l-0.3-0.2l0.4-0.1
			L1820.4,191.8z M1816.8,179.8c-0.5-2.7-4.6-1.8-4-5c1.9,0.1,4.1,0.2,6.2,0.4c2.2,0.1,3.2,0.8,1.8,3.1c-0.4,0.8-0.5,1.7-0.8,2.5
			c0.3,1.7,2.1,2.3,2.9,3.8C1817.9,184.5,1817.6,184.4,1816.8,179.8z M1840.6,162.2c-1.2,0.6-2.4,1.3-3.6,1.9
			c-1,2.8-2.2,4.9-5.2,1.8c-2.1,2.5-5.6,1.2-8.2,2.9c-0.9,0.6-0.3-2.3-0.8-3.6c-1,0.7-3.2,0.3-2.7,2.1c0.6,2.1,1.3,3.6-1.8,3.4
			c-1.5-0.1-3.7,1.5-4.4-0.8c-0.6-2-0.6-4.5,1.7-5.7c2.3-1.2,3.5-4.4,7.1-3.7c1.1,0.2,3.7-1.6,3.2-3.5c-1-4.4,1.5-5.2,4.8-5.4
			c2.3-6,5.3-0.9,8-0.5c3.8,0.7,4.8,3.9,5.3,6.8C1844.5,159.8,1843.8,162.5,1840.6,162.2z M1908.3,157.1c1.5,0,2.7,0.4,2.5,2.2
			c-0.2,1.7-0.2,4.2-2.1,4.5c-2.1,0.3-2.3-1.8-1.9-3.1C1906.4,158.7,1905.9,157.1,1908.3,157.1z M1900.2,176.4
			c0.9-0.8,1.9-0.5,2.8-0.2c1,0.4,1,1.6,0.6,2.1c-1.6,1.8,0.6,3.8-0.5,6.1c-1.2-2.1-2.4-3.8-3.3-5.7
			C1899.5,178,1899.5,177,1900.2,176.4z M1888.6,226.2c0.3-1.3,1.8-2.6,3-1.9c2.3,1.3,0.8,3.7,0.6,5.8
			C1890.6,229,1888.1,228.7,1888.6,226.2z M1887.8,237.2c0.1-2.3,0.3-4.6,2.8-5.9c1.9,0.8,3.8,1.5,3.8,4c0,3.5-4.8,1.1-5.2,4.1
			C1887.8,239.3,1887.8,238.3,1887.8,237.2z M1894.9,245.7c1.1,0.9,2.1-0.6,3.3,0c-0.1,1.9-1.3,2.5-2.5,3.2
			c-1.8,1.1-2.8-1.2-4.4-1.2c-0.7,0-0.7-1-0.3-1.6C1892.2,244.7,1893.6,244.6,1894.9,245.7z M1882.2,251.4c-1.6-2.9,2.2-3.1,2.8-5.1
			c0.8,2.1,2.1,4.3-0.6,5.7C1883.8,252.3,1882.4,251.9,1882.2,251.4z M1886.4,262.9c-0.9,0-1.8-0.3-1.1-1.4c0.7-1.1,0.4-3.2,2.3-3.3
			c0.9-0.1,1.4,0.7,1.3,1.8C1888.3,261.1,1888.3,262.8,1886.4,262.9z M1887.2,249.5c0-2.3-1.1-4.8,0.6-7c0.2-0.3,0.9-0.4,1.3-0.3
			c0.3,0.1,0.7,0.9,0.6,1c-2,3,0.3,5.1,1.7,7.3C1889.4,251.6,1887.2,251,1887.2,249.5z M1892.7,253.3c1.4,1.6,2.8,3.3,4,4.6
			C1893,258.5,1893,258.5,1892.7,253.3z M1900.9,268.1c0.4,1.8-1.1,2.2-2.5,2c-1.9-0.2-2-2.2-1.4-3c1.4-1.8,2.4-4,5.2-5.5
			C1901.9,264.2,1900.5,266,1900.9,268.1z M1911.2,219.7c-0.7,0.9-1.6,2-2.8,0.7c-1.1-1.2-0.9-2.5,0.3-3.4c1.4-1,3-2.2,5-1.5
			C1913.5,217.3,1912.2,218.4,1911.2,219.7z M1908.2,213.2c-2.9,1.1-4,4.5-2.4,7c0.8,1.2,0.9,2.8,1.8,3.8c2.3,2.5,0.3,1.5-1,1.6
			c-1.1,0.1-1.4,1.3-1.7,2.2c1.1,0.5,3.6,1.1,2.5,2.2c-3.8,3.9,6.4,11.9-4.8,13.5c3.7-4.4,0.4-4.9-2.5-5.5c-1.3-0.3-2.6-0.1-2.3-2.2
			c0.3-1.9-1.3-3.2-2.5-4.5c2.9-2.3,8.2,5.9,9.5-2.3c-0.6-0.7-1.3-1.4-1.9-2c-0.1,1.3,1.1,3.4-1,3.7c-2.6,0.3-3.8-2-5-4
			c-3.7-3.1-8.1-5.9-6.7-12.3c3.8,1.2,3.7,6.5,7.6,7.3c-0.3-2.3,6.7-2.2,2.1-6c-1.6-0.3-3.7,1-4.8-1c-0.8-1.5,0.9-2.2,1.7-3
			c-1.1-2.2,0.6-3,2.1-3.9c0.8-4.8,4-1.7,6.2-1.9c0.7,0.1,1.3,0.1,2,0.2c2.4-0.3,2.4-1.5,0.9-3c-2.7-2.7-1.1-3.7,1.7-4
			c3.6-0.5,5.6-2.5,6.1-6c-0.7-0.4-1.6-1.2-2.1-1c-5.6,2.3-7-1.5-8.3-5.6c-0.7-2.2,0.9-3.7,1.8-5.1c0.9-1.3,2.4-0.3,2.4,1.5
			c2.7,1.7,5.4,3.4,5.2,7.2c0.4,0.6,0.7,1.2,1.1,1.8C1919.5,198.9,1915.3,210.5,1908.2,213.2z M1917.6,185.3c-1.8-1.1-3.8-1.3-3-3.6
			c0.3-1,1.3-1.7,2.3-1.2C1918.7,181.5,1917.9,183.2,1917.6,185.3z M2009.9,170.4c2.1,0.3,2,2.2,1.6,4.4c-0.9-2.5-4.5,1-4.6-2.3
			C2006.9,171,2008.8,170.2,2009.9,170.4z M1988,182.8c2.3,1.1,4.6,1.4,7.4,0.8c-6.2,8-6.2,8-9.8,7.7
			C1991.6,189.8,1988.1,186.1,1988,182.8z M1990,179c1.3-2.5,5-2,5.1-5.3c0-1.2,1.2-0.7,1.9-0.3c0.8,0.5,1.3,1.3,0.4,2
			C1995.3,177,1993.8,179.9,1990,179z M1999.5,186.5c-1.8,1.9,2.5,5.1-1.4,6.1c-1.5,0.4-3.4-0.9-3.6-2.8
			C1994.2,186.2,1997.4,187.2,1999.5,186.5z M1999.2,177c-0.4-0.1-0.7-1.1-0.1-1.7c0.8-0.9,2-1.9,3-1.1c1.7,1.4,3.8,0.7,5.5,1.4
			c0.6,2-1.7,1.6-2.2,2.8c-0.5,1.2-1.3,2.2-1.9,3.2C2000.9,180.9,2001.9,177.4,1999.2,177z M2004.7,160c0.1,0.3,0.2,0.6,0.2,0.9
			c1.5,2.7,1.8,5.6,1.1,8.5c-0.2,1,0.3,2.8-1.5,2.4c-1.5-0.3-1-1.8-0.9-2.9c0.3-2.3,0.9-4.5,0.2-6.8c-0.3-0.4-0.7-0.7-0.8-1.1
			c-0.5-1.6-2.3-3-1.1-4.9c0.3-0.4,1.2-0.9,1.6-0.7C2005.9,156.4,2004.1,158.5,2004.7,160z M1998.6,152.4c0.5-2,2.6-1.5,4.1-2
			c1-0.3,2.2,0.4,1.9,1.5c-0.5,1.8-2.5,1.6-3.5,2.1C1999.4,154,1998.4,153.6,1998.6,152.4z M1987.1,158.6c1.5-0.6,2.4-1.3,0.9-2.8
			c-0.7-0.7-1.6-1.5-0.8-2.5c0.8-1,2-0.6,3.2-0.3c4.7,1.1,8.5,6.8,8.2,12.9c-6-6.5-8.2-7-12.1-3.1
			C1984.5,159.8,1984.5,159.7,1987.1,158.6z M1982.8,195.5c1.8-1.4,3.5-1.6,5.3,0.1c2.2,2-0.2,2.7-0.9,3.9c-1,1.6-2.7,2.6-1.7,5.2
			c0.9,2.4-1.6,2.7-3.3,3.3c-0.6-0.3-1.4-0.4-1.7-0.9C1979.6,206,1981.6,196.4,1982.8,195.5z M1986.4,221.6c1.9,1.3,5.3-0.2,5.7,4.1
			c0.4,4.1-3.1,4.8-4.8,6.9c-1.4,1.8-3.3,0.1-4.9-0.7c-2.2-1.2-2.4-3.2-1.8-5.1c0.6-1.9,1.5-3.3,0.1-5.4c-0.9-1.4,0.2-3.4,1.8-4.1
			c2.3-1,4.3-2.8,7-2.6c1.1,0.1,1.2,1.5,1.3,2.5c0.1,1.1,0,1.9-1.3,2.2c-1.3,0.3-2.5,0.7-4.1,1.2
			C1985.9,221.1,1986.1,221.4,1986.4,221.6z M1980.7,210.1c1.7-0.2,2.1,1.2,2.3,2.6c0.2,1.5-0.3,3-1.6,3.2c-2.2,0.3-1.3-2.3-2.3-2.8
			C1979,211.4,1979.4,210.3,1980.7,210.1z M1978.3,222.4c1.6,3.4-5.4,5.9,0.8,9.7c-4.1,0.1-6.1-0.8-5.9-2.7
			C1973.5,226.4,1975.4,224,1978.3,222.4z M1974.1,270.6c0,0.6-0.6,1.2-1.4,1c-0.8-0.2-1-0.8-1-1.5c0.1-2.1,0.2-4.2,0.3-6.7
			C1975.3,265.4,1974.1,268.2,1974.1,270.6z M1985.6,285.1c-1.5-1.4-2.8-2.5-4-3.8c-0.7-0.7-2.3-1.4-1.1-2.7
			c0.8-0.9,2.2-0.7,3.1,0.1C1985.4,280.2,1987.1,281.9,1985.6,285.1z M1986.9,266.3c-1.2,0.3-3.3,0.3-3.4-1.1
			c-0.1-2.8,2.7-3.4,5.7-5.3C1987.7,262.7,1990.4,265.5,1986.9,266.3z M1993.2,251.8c-0.3,1.7-2.8,2-4.4,2.3c-1.8,0.4-3-0.9-3-2.9
			c-2.1-0.4-5.5-3.5-4.4,2.4c0.2,0.9-1.3,2.3-2.6,2.6c-1.1,0.3-1.9-0.5-2.4-1.3c-1.1-1.8,0.7-2.1,1.6-2.9c0.8-0.8,1.6-1.6,0.8-2.9
			c-2.4,0.2-4.6,2.3-7.1-0.6c-2.8-3.2-2.7-3.8,1.2-5.9c2.3-1.2,3.5-4.4,6.9-2.4v0l1.5-0.2c-1.5-1.3-2.9-2.5-4.4-3.8
			c5.2-2.5,7.2-1.1,7.8,5.6c0.2,1.8,0,3.6,0,5.4c-0.1-0.2-0.2-0.3-0.3-0.5c0.1,0.2,0.1,0.3,0.3,0.5c1,0.7,2.1-1,3.1,0
			c1,0.2,2.4-0.1,3,0.5C1991.9,248.8,1993.4,250.6,1993.2,251.8z M1993.9,239.9c-1.6,0.2-3.2-0.7-4.6-1.7c-0.6-0.5-1.6-0.9-1.2-1.9
			c0.2-0.5,1.1-1,1.5-1c2.5,0.4,3.5-0.9,3.4-3.8c2,2,4.5,1.9,4.6,4.5C1997.8,238.7,1996,239.7,1993.9,239.9z M1998,201.8
			c1.1,3.1,3.8,5.7,3,9.4c-0.1,0.5,0.2,1.1,0,1.5c-2.7,4.2-5.1,8.4-3.4,13.8c0.2,0.6-1.4,1.8-2.7,1.6c-0.8-0.1-1.2-0.8-0.8-1.5
			c2.1-3.6,1.2-6.4-3.2-9c4.7-0.7,6.3-2.4,5.4-6.1c-0.9-3.7-2.9-5-6.5-4.2c-0.5,0.1-2.3,0.6-1.6-0.2c2.1-2.2-2.6-4-0.1-5.5
			c2.4-1.4,5.1-2,3.8-5.9c-0.4-1.3,1.2-1.7,2.5-1.6c8.7,0.7,8.8,0.6,11.4-7.6c0.7-2.3,1.2-4.8,3.7-7.4c1.3,3.8,2.7,6.6-0.8,9.8
			c-2.8,2.5-3.3,6.1,0.8,8.4c-1.2,1.5-2.5,1.3-3.1,0.8c-3.4-3.3-5.7,0.9-8.5,1.3C1996.5,199.6,1997.7,200.9,1998,201.8z
			 M2097.9,197.6c-0.7,0-2-1.3-1.9-1.9c0.3-2.7,2.8-2.5,4.9-2.9C2099.9,194.5,2101,197.6,2097.9,197.6z M2113.9,174
			c-0.5,1.5-1.8,2.1-3.1,2c-2.1-0.1-3.6-1.4-4.7-3.7c1.7-0.4,2.9-0.6,4.1-0.9c0.9-0.2,0.1-3.3,2.4-1.3
			C2113.8,171.2,2114.4,172.4,2113.9,174z M2091.2,186c1.4,3.5,1,6.7-0.4,10c0.2,1.6,0.3,3.2,0.6,4.9c0.5,3.2-1.1,3.8-3.8,3.1
			c-1.1,0.7-2.3,2.9-3.4,1.2c-1-1.6-3.1-4.3,0.5-6c0.4,0,0.8-0.1,1.2-0.1c-0.6-2.7,0.2-5.8-2.9-7.4c0.9-1.1,4.3,0.9,2.4-3.2
			c-0.9-2,3.6-5.8,5.9-8.5c-0.2-1.5-1.7-2.8-1.2-4.5c-0.4-2.1-3.3-3.7-1.1-6.2c3.4-3.7,5.2-1.6,6.5,1.9c0.4,0,0.8,0,1.2,0
			c1-0.6,2-1.2,3-1.8c-1.5-1-3.1-1.9-4.3-3.1c-1.3-1.3-5.3-2.9,0-4.4c1.4-0.4-0.4-2.9,1.4-3.7c0.2-1,0.6-2.3-0.7-2.4
			c-1.2-0.1-2.5,0.2-3.1,1.9c-1.1,2.8-2.5,5.4-3.9,8c-0.3,0.5-0.8,1.2-1.3,1.2c-1.1,0-1.2-1-1.2-1.8c0-1.8,0-3.3,1.7-4.8
			c1.7-1.5,3.7-3.7,1.2-6.3c-0.6-0.6-0.9-1.6-0.1-2.2c0.8-0.6,1.5,0,2.2,0.4c3.8,2.1,6.2,1.2,7.5-2.8c1.3-4,3.3-7.1,8.1-7.1
			c4.7,0,5.9,4.2,8.3,6.9c0.5,0.6,0.7,2.3,0.2,2.8c-1.8,2.2-1.2,4.8-1.8,7.2c1.5,3,2.1,5.7-2.1,6.9l0,0l-1.4-0.2
			c-2.5,1.2-4.4,3.6-7.5,3.5c-1.4,3.2,0.1,6.7-1,10.1c-0.6,1.9,2.2,1.5,2.8,2.8c3.3-1,2,2.2,2.8,3.3c0.6,0.8-0.5,1.4-1.4,1.3
			c-1.5-0.1-3.4,1.1-4.3-1.1c-0.4-0.9-0.7-1.8-1.1-2.7c-0.9,0.1-2.4-1.7-2.7,0.3c-0.3,1.8-1.2,3-2.7,2.8c-2.2-0.3-2.3-2.4-2.3-4.3
			C2091.3,182.9,2090.6,184.6,2091.2,186z M2341.3,281.9c-2.2-0.2-1.7,2.7-4.3,3.2c0.9-3.4-1.9-6.9,1.6-10.3c1.2,1.9,0.1,4.3,2.1,5
			c1.6,0.5,1-2.3,2.7-2.4C2344.5,279.8,2346,282.3,2341.3,281.9z M2350.7,290.9c-1.3,1.5-2.6,0.8-4,0.2c-1.5-0.6-0.8-1.2-0.1-1.9v0
			c0.4-0.3,0.8-0.7,1.1-1v0c-2.3,0.1-4.5,0-4-3.2c0.3-1.8,1.9-2.9,3.5-2.8c2.7,0.2,1.1,2.4,1.4,3.8c0.1,0.3,0.2,0.7,0.2,1l0.9,0.8
			C2351.4,288.6,2350.8,289.8,2350.7,290.9z M2355.6,294.1c-0.2,0.4-1.9,0.1-1.7-0.9c0.8-3.2-1.7-5.8-1.9-8.9
			c2.7,0.4,3.4,3.5,5.9,3.6C2357.1,290,2356.5,292.1,2355.6,294.1z M2413.7,216.1c0.1,2.4,1.1,4.4-0.7,6c-0.6,0.5-1.8,0.2-2-0.7
			C2410.4,219.3,2411.3,217.7,2413.7,216.1z M2391,171.9c-0.5-1.9,0.1-2.9,1.9-2.8c1.3,0.1,2.2,0.7,2.1,2.2
			c-0.2,1.5-0.6,3.3-2.2,3.4C2390.7,174.9,2391.1,173,2391,171.9z M2402.4,274.6c2.6-2.3,5-1.7,7.3,0.5
			C2407.2,275.4,2404.8,274.3,2402.4,274.6z M2418,274.7c-0.2,1.9-1.6,2-2.8,1.9c-2.1-0.2-1.3-1.8-1.1-3c0.6-2.9,3.9-3.7,5.4-5.9
			C2419,270,2418.2,272.3,2418,274.7z M2417.6,246.2c-0.4,0-0.9,0.1-1.3,0.1v0v0c0.5,1.2,1.7,2-0.3,3.5c-2.7,2-4.8,4.8-5.3,8.5l0,0
			c0.2,0.1,0.3,0.2,0.3,0.3c1.5,1.2,3,2.4,4.7,3.7c-4.8,1.7-4.8,1.6-4.9-3.2c-2.7-1.1,1.1-4.6-2-5.6v0l-1.1,0.7
			c-0.1,0.7,1.3,1.3,0.4,2.1c-1.7,1.3-2.9-0.4-4.4-0.8c0,0,0,0.1,0,0.1l0,0c0,0,0,0-0.1,0c0.3,1.7,0,2.9-2.1,2.7
			c-0.9-0.1-1.7-0.3-1.9-1.2c-0.3-1.5,0.9-2.5,1.9-3.2c1.6-1,1.5,1,2.2,1.6c0,0,0,0,0-0.1c0,0,0.1,0,0.1,0c1.1-2.3-1.5-5.2,1-7.4
			l0,0v0c0-0.4,0-0.7,0-1.1c-2.8-1.8-4.2-4-2-7.2c-0.3-0.5-0.7-1.1-1-1.6c-2.8-0.8-2.5-2.3-1-4.1c0-0.3,0-0.5,0.1-0.8
			c-0.5-0.1-1.1-0.1-1.4-0.4c-1.3-1.3-4.4-1.9-3.4-4.1c1-2.1,3.1,0.7,4.8,0.3c-0.7-0.9-1.4-1.8-2.1-2.8c-0.5-2.7-1.8-6,3.3-4
			c0.7,0.3,1-0.5,1-1.2c-0.7-1.1-1.2-1.9,0.7-2.5c3.4-1,2.2-2.5,0.2-3.9c-0.4,0.8-0.8,1.6-1.3,2.4c-0.8,0.2-1.5,0.5-2.3,0.7
			c-0.9,0.3-2,0.7-2.6-0.4c-0.6-1.2-0.3-2.3,1.4-2.4c1.4-0.1,1.3-1.2,1.5-2.1c-2.1-1.1-6.7-1.5-6.1-3c1.7-4.6-5-8.4-0.7-12.7
			c-0.1-1.1-0.2-2.3-0.5-3.4c-0.4-1.5-0.2-3.1,1.2-3.3c2-0.3,0.9,1.4,1,2.4c0.2,1.6,1.6,1.3,2.7,1.2c3.2,0,5.8,1.2,7.5,4
			c0.9,1.1,1,2.5,1,3.8c4.3,2.8,5.3,10.6,1.8,15.1c-2.2,2.9-1.3,5.8,2.3,6.8c1.6,0.5,2.2,2.1,4,2.6c1.3,0.4-0.7,1.1-1.1,1.7
			c0,0.8-0.2,2.1,0.6,2.1c3.8,0.3,3,2.6,2.4,4.9c2.3,0.9,3.3,3.3,4.3,5.1C2423,243.3,2421.2,245.6,2417.6,246.2z"/>
		<path fill="#7A3A15" d="M2111.2,127.2c16.3,0,27.7-9.6,31.8-26.8c3.3-13.9-5.6-26.8-19.6-28.5c-16.5-2.1-31.4,9.7-34.7,27.2
			C2085.8,113.8,2096.6,127.2,2111.2,127.2z M2099.2,93.1c0.4-0.7,1.1-1.9,2.2-1.3c0.4,0.3,0.3,1.5,0.4,2.3c1.3,1.1,2.4,2.4,3,3.9
			c2.5-0.2,2.2-1.7,1.5-3.3c-0.4-0.9-3.3,0.1-1.9-2.1c1.3-2,3.3-1.7,5.1-0.3c0,0,0,0,0,0c1.2-0.3,2.3-0.7,3.5-1
			c3.1,0.2,3.5,3.6,5.7,4.9c2.6-1,5-0.9,6.4,1.9c1.3,2.7,0.4,4.8-2.3,6.1v0v0c0,1,0,2,0.1,3c0.4,2.2-1,5.3,3.2,5.3
			c0.7,0,1.7,0.8,1.3,1.6c-1,1.9-2.7,2.1-4.5,1.1c-1.9,0.6-1,2.6-2,3.7c-1.5,1.7-3.1,3.1-4-0.5c-0.1-2.6-3.8-1.7-4-4.1
			c-1.1,0.1-2.4-0.2-3.4,0.2c-3.6,1.5-3.6-0.2-2.7-2.8c-7.3,0.6-7.6,0.5-8.1-6.8c2.4,2.6,4.6,5.1,8.2,4.5c0.3-0.1,0.5-0.1,0.8-0.1
			c-1.1-1.8,0.7-4.4-1.8-5.8c-0.3,2.6-1.1,4.4-4,2.1C2097.2,102.1,2096.2,98,2099.2,93.1z"/>
	</g>
	<g>
		<path fill="#7A3A15" d="M852,233.1c-0.1,0.1-0.3,0.1-0.4,0.2C851.8,233.3,851.9,233.3,852,233.1z"/>
		<path fill="#7A3A15" d="M1075.5,213.4c-3.6-1.4-6.2-0.5-8.5,3.5c-2.1,3.7-4.4,7.3-6.5,11c-9,15.5-21.5,27-38.2,33.9
			c-12.4,5.1-25.4,6.3-38,2.6c-15-4.4-19.8-14.9-20.8-29c-0.2-3.2,1.8-4.2,5.6-3.7c16,2.1,31.8,1.9,47.6-2.4
			c22.7-6.2,40.5-26.8,41-48.8c0.5-21.7-10.7-36.6-31.5-41.4c-11.5-2.6-23.1-2.7-34.9-0.9c-24.7,3.8-44,16.3-58.5,36.1
			c-10,13.7-16.2,29.3-18.5,46.1c-0.8,5.6-3.3,9.8-6.7,13.8c-2.6,3-5.3,6.1-8.4,8.7c-5.4,4.7-11.5,8.2-18.5,9.9
			c-5.8,1.4-7.7-0.3-7.4-6.2c0.3-5.8-0.3-11.5-1.1-17.2c-1.4-10.2-4.3-19.9-7.2-29.8c-3.9-13.3-7.8-26.7-10.8-40.3
			c-1.1-5.3-0.7-9.9,2.1-14.3c1.5-2.3,2.5-4.8,2.8-7.5c1.1-9.3-5.2-15-15-16.5c-10.8-1.7-21.4,0.8-30.9,6.7
			c-8.8,5.5-15.7,13.2-22.6,20.8c-10,10.9-17.3,23.9-25.4,36.2c-9.1,13.9-16,29-24.7,43.2c-9.2,15.1-21.2,26.6-37.6,33.6
			c-12.5,5.3-25.5,6.5-38.4,2.9c-15.2-4.3-20.1-15-21.1-29.2c-0.2-3.2,1.8-4.1,5.7-3.6c16,2.1,31.8,1.9,47.6-2.5
			c22.7-6.2,40.5-26.8,41-48.8c0.4-21.3-10.1-35.9-30.5-41.2c-10.3-2.6-21-3.2-31.6-1.7c-10.8,1.5-21.4,3.9-31.1,9.1
			c-26.3,14.1-41.5,36.7-48.6,65.1c-1.4,5.8-2.7,11.4-6,16.7c-9.3,15-21.5,26.5-37.9,33.3c-12.4,5.2-25.4,6.3-38,2.7
			c-14.9-4.3-19.8-14.6-21-28.9c-0.3-3.3,1.7-4.4,5.5-3.9c15.9,2.2,31.5,1.9,47.2-2.3c22.9-6,41.2-26.9,41.6-49.1
			c0.4-21.4-10.3-35.9-30.7-41.1c-10.2-2.6-20.7-3.1-31.3-1.7c-10.7,1.4-21.1,3.8-30.8,8.9c-26.5,14.1-41.8,36.6-49.1,65.2
			c-0.9,3.4-0.9,7.1-2.6,10.2c-6.3,11.7-12.7,23.4-22.3,32.9c-4.2,4.2-8.2,8.8-13.9,11.1c-7.1,2.9-10.9,0.9-12.3-6.6
			c-0.3-1.5-0.3-3.2,0-4.7c2.2-10.7,4.2-21.6,7.9-31.9c5.8-16,11.6-31.9,14.3-48.7c1.4-8.8,0.6-17.2-4.1-25.1
			c-8-13.3-32.5-15.5-45-10.1c-13.7,5.8-25.3,14.6-36.2,24.5c-0.7,0.6-1.3,1.9-2.3,1.1c-0.7-0.6-0.2-1.6,0.1-2.4
			c7.4-20.9,12.8-42.5,21-63.1c3.4-8.6,4.7-18,8.9-26.3c2.9-5.8,4.7-12,7.1-18c2.3-5.7,1.3-7.7-4.4-10.2c-11-4.9-22.5-4.6-34.2-3.3
			c-5.4,0.6-8.5,3.7-10.6,8.3c-3.1,6.9-5.2,14.2-7.6,21.3c-5.7,16.6-11.8,33.1-17.6,49.6c-3.9,11-6.9,22.4-10.6,33.4
			c-7,20.7-12.7,41.8-18.4,62.8c-0.7,2.6-1.3,5.3-2.8,7.5c-7.5,10.8-16.2,20.9-27.5,27.7c-18.2,11.1-38.3,15.9-59.6,12.7
			c-13.3-2-24.1-8.5-31.6-19.9c-8.5-12.8-12.4-27.4-13.4-42.5c-1.5-22.8,2.6-45,10.8-66.3c1.4-3.7,4.2-4.7,7.6-2.8
			c11.8,6.7,24,12.4,37.2,15.8c14.1,3.7,28.4,4.3,42.5,1.8c18.5-3.3,34.5-11.8,46.1-27.3c8.5-11.3,14.3-23.3,12.6-37.9
			c-2.3-20.5-13.4-34.3-32.1-42.4c-15.5-6.7-32-5.8-48.1-4.1c-18.6,1.9-35.9,8.7-51.7,19.2c-6.3,4.2-12.3,8.8-17.7,14.1
			c-3,3-5.8,2.7-7.5-0.4c-4.1-7.3-7.4-14.8-8.8-23.1c-1.5-8.9-6.4-11.8-15.3-9.5c-6.1,1.5-7.5,3.2-6.8,9.6
			c1.5,14.4,6.4,27.8,13.4,40.4c2.7,4.9,2.4,7.6-0.6,12.1c-4.7,7.1-9.6,14.2-13.2,22c-9.4,20.7-15.5,42.4-16.9,65.2
			c-1.1,17.2,0.6,34.2,6.4,50.5c1.7,4.9,4.4,9.5,6.8,14.2c9.3,17.7,23.6,30,42.1,36.5c23.3,8.2,47,7.9,70.5,0.5
			c15.8-5,30.8-11.7,42.7-23.9c0.3-0.3,0.7-0.6,1.4-0.3c-1.2,6-2.4,12.1-3.7,18.2c-1.5,6.5,1.6,9.4,7.3,10.4c12,2.3,24,2.4,35.9-1.1
			c3.8-1.2,5.8-3.6,6.9-7.3c2.2-7.9,2.6-16.2,4.8-24c4.4-16.4,8.6-32.8,13-49.1c3.1-11.3,8.3-20.7,17.1-28.3
			c7-6,14.4-11.4,23.6-13.6c6.5-1.5,11.2,2.5,11.2,9.2c0,5.3-1.9,10.3-3.3,15.3c-5,17.8-10.5,35.5-13.9,53.8
			c-1.4,7.5-3,15.1-1.9,22.9c1.3,9.9,5.3,17.8,15.6,20.9c16.7,5,32.8,2.7,47.6-6c11.1-6.6,20.5-15.3,28-26c1.9-2.8,4.1-5.3,6.4-8.3
			c0.4,0.7,0.6,1,0.7,1.3c7.7,24.2,24.7,37.2,49.4,40.9c9.4,1.4,18.8,0.3,28.2-0.4c19.4-1.3,36.5-8.1,51.3-20.9
			c7.4-6.4,13.7-13.9,21-21.3c0.5,1.3,0.8,2.1,1,2.9c7.9,23.4,24.6,35.9,48.5,39.6c10,1.6,20.1,0.6,30-0.5
			c11.9-1.3,23.8-3.2,34.2-9.8c4-2.6,8.1-5,11.9-7.9c9.9-7.5,18.5-16.4,25.8-26.4c7-9.6,12.6-20.2,18.1-30.8
			c6.7-12.7,13.9-25.3,22.1-37.1c5.7-8.2,10.6-17,17.7-24.2c1.1-1.1,2-2.4,3.6-2c1.8,0.5,2,2.2,2.3,3.8c0.5,3.1,0.9,6.3,1.6,9.4
			c4.5,19.2,9,38.5,13.7,57.7c0.9,3.8-0.2,6.3-3.3,8.3c-7.1,4.6-8.8,10.8-5.2,18.5c0.7,1.5,1.4,3.1,2,4.7c0.8,2.2,0.1,3.8-1.8,5.4
			c-7.5,6.1-17.8,2-22.6-3.5c-4.3-5-5.7-11.2-7.9-17.1c-2.1-5.6-5.2-7.6-10.9-6.4c-5.9,1.2-10.9,4.3-14.7,9c-3,3.7-3.7,7.9-2.3,12.4
			c0.7,2.4,1.6,4.9,2.4,7.3c6.1,17.7,20.1,26.4,37,30.4c10.4,2.4,21.3,0.4,31.7-1.6c11.4-2.2,22-6.8,30-15.7c3.4-3.8,7.6-5.5,12.5-6
			c15.2-1.4,29.3-5.4,39.6-17.8c2-2.4,3-2.9,4.2,0.8c7.7,23.1,24.4,35.4,48,39.1c9.8,1.6,19.5,0.4,29.3-0.3
			c19.4-1.3,36.4-8.4,51.2-21.1c15.1-12.9,26.4-28.7,36-45.9c0.8-1.5,1.3-3.2,1.6-4.8C1082.5,218.2,1080.7,215.5,1075.5,213.4z
			 M988.9,214.3c-0.9,0-1.7-0.2-1.9-1.2c-0.2-0.8,0.3-1.5,1-1.6c1-0.1,1.8,0.4,2.2,1.4C990.1,213.7,989.9,214.4,988.9,214.3z
			 M995.1,216.1c0-0.7,0.1-1.6,1.1-1.5c1.1,0.1,1.1,1.1,1.4,1.8c0.1,0.8-0.4,1.2-1,1.2C995.6,217.8,995.2,217,995.1,216.1z
			 M999.6,225.8c-1.2,0-2.6,0.2-3.1-1.3c-0.3-0.9,0.5-1.7,1.4-1.7c1.4-0.1,2.4,0.8,3.6,1.4C1001.2,225.3,1000.5,225.7,999.6,225.8z
			 M1005.9,219.9c-0.4-0.1-0.9-0.4-1.1-0.8c-0.8-2.2-2.6-3.3-5-3.9c1-1,1.6-2.5,2.9-1.2c1.6,1.5,3.8,2.7,3.9,5.3
			C1006.6,219.5,1006,220,1005.9,219.9z M1007.6,208.9c1.8,0.2,3.2-2,4.9-0.2c0.5,0.6,0,1.3-0.8,1.7
			C1010,211.3,1008.5,211.5,1007.6,208.9z M1023.3,165.9c-2-0.4-0.4-2.3-1.1-3.4c1.4,0.4,2.9,0.6,3,2.1
			C1025.2,165.3,1024,166.1,1023.3,165.9z M1028,191.7c3.2,1.1,2.7,3.6,1.3,6.3c-1.1-0.8-1.7-3.1-3.9-1.2c-1,0.9-2.2,0-1.5-1.5
			C1024.7,193.4,1025.3,190.8,1028,191.7z M1024.4,198.5c-1.5,1.3-2.9,2.4-4.3,3.6c0,1.4,1.1,2.8-0.4,4.2c-1.3-1.6-4.1-3-0.3-4.9
			C1020.1,199.1,1020.9,197,1024.4,198.5z M1015.1,202.7c-1.2,0-2.2-1.3-2-2.6c0.6-3.4,3.4,0,4.8-1.6
			C1017.6,200.6,1017.4,202.7,1015.1,202.7z M1013.2,213.2c1.4,0.3,1.3,1.6,1.6,2.5c0.1,0.4-0.1,1-0.8,1c-1.5,0-1.5-1.4-1.9-2.3
			C1011.8,213.7,1012.6,213.4,1013.2,213.2z M1019.1,222.5c-2.5,0.2-4.8,0.7-6.5,2.7c-1.5,1.8-2.5,0.3-3.3-0.7
			c-1.3-1.7,0.5-2.9,1.4-3c2.8-0.3,5.6-0.1,8.4-0.1L1019.1,222.5z M1026.5,213.7c-1.2-0.6-2.9-0.3-3.6-1.8c0.5-0.9,0.6-2.1,1.5-1.9
			c1.4,0.3,2.4,1.5,2.8,2.9C1027.5,213.5,1027.1,214,1026.5,213.7z M1032.3,206.9c-0.5,1.3-1.5,0.5-2.4,0.6c-3,0.3-6.1-0.2-9.1,0.6
			c-1.2,1.1-1,2.6-1.3,4c-0.3,1.3,0.4,2.8-0.5,4.2c-4-3.4-3.7-4.7,1.7-8.7c0.1-0.1,0.1-0.1,0.2-0.1c0.2-1.2,4.3-1.3,0.9-3.4
			c-0.4-0.3-0.3-0.9,0.2-1.2c1.2-0.6,2.9-0.6,3.2,0.5c1,2.9,2,3,4.2,1.1c0.6-0.5,2.2-0.6,3,0.3
			C1032.7,205.3,1032.5,206.3,1032.3,206.9z M1048.9,171.9c0,3.4-0.4,5.9-1.4,8.2c-0.3,0.8-0.5,2.2-1.9,1.7
			c-1.1-0.4-1.6-1.4-1.4-2.7C1044.6,176.4,1046.3,174.4,1048.9,171.9z M1018.7,146c1.7-0.9,3.2,0.6,4.9,1.2c-1.8,0-2.9,3.1-4.9,1.2
			C1018.1,147.7,1018.1,146.3,1018.7,146z M1018.7,154.8c1.6,1.5,4.2,1,5.8,0.5c1.4-0.4,1-2.6-0.6-3.6c0,0,0,0-0.1,0l0,0
			c0,0-0.1,0-0.1,0c-0.2,0.3-0.4,0.5-0.5,0.8c-0.4,1.3-1.2,1.8-2.4,1.3c-0.7-0.3-0.9-0.8-0.6-1.5c0.5-1.3,1.5-1.5,2.7-0.9
			c0.3,0.1,0.6,0.2,0.9,0.3c0,0,0,0,0-0.1c0,0,0.1,0.1,0.1,0.1c4,0,8.4-2.4,11.4,2.3c0.8,1.2,2.1,1,3.1,1.7
			c4.4,3.1,7.8,11.9,5.2,16.4c-1.4,2.4-2.3,4.6-2.9,7.1c-0.2,0.7-0.5,2-0.1,2c4-0.4,2.7,4.3,5.3,5.4c1.1,0.4,0.3,1.8-0.7,1.5
			c-2.2-0.7-2.2,1.3-3.1,2.2c2,1.8,3.6,3.2,0.4,5.8c-0.9,0.7-0.7,4.4-0.8,6.7c-0.1,3.2-3.1,5.5-6.2,5.1c-0.8-0.1-1.4-0.3-1.4-1.2
			c0-0.7,0.3-1.2,1-1.2c1.6-0.1,2.9-0.4,3.2-2.3c-2.5,0.2-3.4-3.7-6.3-2.5c-1,0.4-1.5,1.6-2.9,1.5c-0.1-3.4,6.9-3.8,3.6-8.3
			c-1.4-2.1-4-3-5.3-5.2c-0.3-0.6-1.3-0.9-0.7-1.8c0.6-0.9,1.7-0.8,2.7-0.9c0.9-0.1,1.4,0.5,1.2,1.4c-0.6,2.8,1.8,4,3,5.9
			c1.5-0.1,2.1,1.1,2.9,1.9c1.5,1.5,3.1,0.7,4.4,0.2c1.7-0.8,0.8-2.7,0.9-4.2c-0.5-1.9-1.8-2.4-3.5-2.2c0,0,0,0.1,0,0.1c0,0,0,0,0,0
			c0,0,0,0,0,0c0,0,0,0,0,0l0,0c0,0,0,0,0,0c0.3,0.2,0.6,0.3,0.8,0.5c1.2,1,1.6,2.4,1,3.8c-0.3,0.8-1.2,0.6-1.9,0.2
			c-1.3-0.9-2.9-1.9-2.8-3.4c0.1-1.3,1.7-1.2,2.9-1.1c0,0-0.1,0-0.1-0.1c0.1,0,0.1,0,0.2,0c0.4-1.7-1.6-2.2-1.9-3.6
			c-0.2-0.9-1.1-1.8,0.5-2.3c1.1-0.3,1.8-0.7,1.2-2c-0.6-1.3-1.4-2-2.9-1.6c-1.3,0.3-2.6,1.8-3.8,0.1c-0.5-0.7,0-1.4,0.6-1.9
			c1.7-1.8,3,0.2,4.5,0.8c0.6-1.6-1.8-5,2.7-4c1.3,0.3,0.9-1.8,0.2-2.9c-0.9-1.4-2.3-2.5-1-4.5c0.7-1.1-0.3-2.5-1.8-2.3
			c-4.2,0.7-3.6-1.4-2.6-4c0.9-2.4,1.3-4.7-0.6-6.8c-0.8-0.9-1.6-2-3.1-1.4c-1.2,0.5-2,1.5-2,2.8c0.2,4-1.5,4.1-4.9,3.1
			c-2.1-0.6-4.2-0.7-5.9-2.2c-0.7-0.6-1.6-1.5-0.7-2.4C1017.7,153,1018,154.2,1018.7,154.8z M1031.7,166.4c1.4,1,2.6,1.8,3.7,2.7
			c2.3,1.8,2.1,3-0.4,4.3c-1.3,0.7-2.5,1.1-3.5-0.2c-0.8-1-0.3-1.5,2.5-2.6C1033.9,169,1031.4,168.8,1031.7,166.4z M1031.3,174.3
			c0.3,0,0.9,0.7,0.8,1c-0.3,2-2.3,1-3.4,1.8C1029,175.7,1029.5,174.2,1031.3,174.3z M1026.9,165.2c-0.2-2.8,1.8-3,4.2-3.8
			C1030,163.8,1028.1,164.1,1026.9,165.2z M1034.9,186c0.9,1.6-0.7,2-1.4,3c-0.9-3.9-6.2-3.8-6.6-7.8
			C1028.9,181.1,1034,184.3,1034.9,186z M1017.6,151.6c-2.2-0.1-2.6-1.9-3.6-3.5C1016.8,148.1,1018,149.1,1017.6,151.6z M1016.5,159
			c0.5-0.2,1.1,0.3,1.2,1.2c-1.7,1.4-4.1,0.5-6,1.4c-0.7,0.3-2.3-0.5-2.1-1.9c0.1-0.9,0.7-1.8,1.3-2.5c0.1-0.2,1.2,0.4,1.8,0.8
			C1013.8,158.7,1014.8,159.8,1016.5,159z M1009.1,150.2c0.9-0.7,2-0.7,2.3,0.5c0.4,1.4-1,0.8-1.6,0.9c-1.1,0.2-1.5,2.2-3.1,1.1
			C1007.1,151.5,1008.2,150.9,1009.1,150.2z M995.7,145.6c2.4-0.4,3.4,1.6,4.9,3.8c-2.4-0.5-4.6,1.7-6.1-0.7
			C993.8,147.6,994.8,145.8,995.7,145.6z M986.4,148.2c0.7,0.3,1.9,0.5,1.4,1.7c-0.6,1.5-1.2-0.1-1.9-0.2c-1.1-0.1-2.1-0.3-3.5-0.5
			C983.7,146.9,985.1,147.6,986.4,148.2z M967,205.3c3-7,4.6-14.6,9.4-21c5.2-6.9,11.1-12.5,19.1-16.1c4.3-1.9,8.7-1.3,12.9-0.2
			c3.2,0.9,5.2,5,5.1,10.7c-0.8,5.7-3.1,12.1-7.9,17.8c-9,10.8-21,13.5-34,14.2C968.1,211.1,965.7,208.2,967,205.3z M668.5,214.3
			c-0.7-0.1-1.5-0.4-1.6-1.4c0-0.8,0.4-1.5,1.3-1.4c1,0.1,2,0.4,2,1.6C670.1,214,669.6,214.4,668.5,214.3z M675.1,216
			c0-0.8,0.1-1.6,1.2-1.4c1,0.2,1.1,1.2,1.4,1.9c0.1,0.8-0.4,1.2-1.1,1.2C675.5,217.7,675.1,217,675.1,216z M679.3,225.8
			c-1.2-0.1-2.7,0.1-2.7-1.6c0-0.9,0.8-1.4,1.9-1.5c1,0.4,2.6,0.4,2.9,1.7C681.6,225.4,680.3,225.8,679.3,225.8z M686.5,219.5
			c-0.2,1.1-1.4,0.2-1.8-0.5c-1-1.8-2-3.5-5.4-3.3c1.7-1.7,2.4-3.1,3.8-1.3C684.4,216,686.9,217,686.5,219.5z M687.6,208.5
			c2,0.7,3.5-2,5,0.2c0.6,0.9-0.4,1.5-1.2,1.9C689.6,211.3,688.2,211.2,687.6,208.5z M698.5,198.1c-0.9,2.5-1,4.8-3.6,4.6
			c-1.1-0.1-2.2-1.5-1.7-2.8C694.1,197.2,696.5,199.5,698.5,198.1z M691.8,161.6c-2.3,0.4-2.7-1.5-0.9-4.6c1.9,0.7,3.2,2.9,5.7,2
			c0.3-0.1,1.1,0.3,0.9,0.8c-0.1,0.4-0.5,0.9-0.9,0.9C695.1,161,693.5,161.3,691.8,161.6z M702.4,162.4c1.1,0.7,3,0.6,2.7,2.3
			c-0.1,0.7-1.2,1.5-2,1.2C701.5,165.2,702.6,163.6,702.4,162.4z M706.3,191.7c1.3-0.9,2.1,0,2.9,0.7c1.3,1,1.8,2.2,0.8,3.8
			c-0.3,0.4-0.2,1.1-0.5,2.1c-1.3-1.7-2.4-3.4-4.4-1.4c-0.5,0.5-1.7-0.1-1.4-1C704.1,194.3,704.8,192.7,706.3,191.7z M704.4,198.5
			c-1.5,1.3-2.9,2.4-4.3,3.6c0,1.4,1.1,2.8-0.4,4.2c-1.3-1.6-4.1-3-0.3-4.9C700.1,199.1,700.9,197,704.4,198.5z M694.8,215.3
			c0.2,1-0.1,1.5-0.9,1.4c-1.2-0.1-1.2-1.3-1.7-2.1c-0.4-0.7,0.2-1.2,0.8-1.2C694.7,213.1,694,215,694.8,215.3z M692.9,225
			c-0.4,0.5-1.4,1.8-2.3,0.8c-0.6-0.7-1.8-1-1.6-2.2c0.2-1.3,1.5-2.3,2.2-2.2c2.7,0.7,5.3-0.4,8,0.4
			C697.2,223.1,694.5,222.9,692.9,225z M703.2,211.6c-0.1-0.5,0.9-1.6,1.2-1.6c1.8,0.4,2.8,1.6,3.3,4.5
			C705.8,212.9,703.5,213.9,703.2,211.6z M712.3,206.9c-0.5,1.3-1.5,0.5-2.4,0.6c-3,0.3-6.1-0.2-9.1,0.6c-2.1,2.3-0.8,5.5-1.8,8.2
			c-4.1-3.5-3.8-4.8,1.6-8.8c0.1-0.1,0.1-0.1,0.2-0.1c0.2-1.2,4.3-1.3,0.9-3.4c-0.4-0.3-0.3-0.9,0.2-1.2c1.2-0.6,2.9-0.6,3.2,0.5
			c1,2.9,2.1,3,4.2,1.1c0.6-0.5,2.2-0.6,3,0.3C712.7,205.3,712.5,206.3,712.3,206.9z M729.1,171.9c-0.3,3.3-0.5,5.7-1.4,8
			c-0.3,0.8-0.4,2.3-1.7,1.9c-1.4-0.3-1.8-1.6-1.6-2.9C724.8,176.3,726.3,174.2,729.1,171.9z M698.7,146c1.8-0.7,3.4,0.4,5,1.4
			c-1.8-0.3-3,2.9-5,0.9C698.1,147.7,698.2,146.2,698.7,146z M698.7,154.8c1.6,1.5,4.2,1,5.8,0.5c1.4-0.4,1-2.6-0.6-3.6
			c0,0,0,0-0.1,0l0,0c0,0-0.1,0-0.1,0c-0.2,0.3-0.4,0.5-0.5,0.8c-0.4,1.3-1.2,1.8-2.4,1.3c-0.7-0.3-0.9-0.8-0.6-1.5
			c0.5-1.3,1.5-1.5,2.7-0.9c0.3,0.1,0.6,0.2,0.9,0.3c0,0,0,0,0-0.1c0,0,0.1,0.1,0.1,0.1c4,0,8.4-2.4,11.4,2.3c0.8,1.2,2.1,1,3.1,1.7
			c4.4,3.1,7.8,11.9,5.2,16.4c-1.4,2.4-2.3,4.6-2.9,7.1c-0.2,0.7-0.5,2-0.1,2c4-0.4,2.7,4.3,5.3,5.4c1.1,0.4,0.3,1.8-0.7,1.5
			c-2.2-0.7-2.2,1.3-3.1,2.2c1.9,1.8,3.7,3.2,0.4,5.8c-0.9,0.7-0.7,4.4-0.8,6.7c-0.2,3.2-3,5.5-6.1,5.1c-0.8-0.1-1.4-0.2-1.5-1.1
			c-0.1-0.7,0.1-1.2,0.9-1.3c1.5-0.1,2.9-0.3,3.3-2.2c-2.4,0-3.2-3.6-6.2-2.6c-1,0.3-1.6,1.6-3,1.2c0.2-3.2,6.7-3.6,3.5-8
			c-1.4-2.1-4-3-5.3-5.2c-0.3-0.6-1.3-0.9-0.7-1.8c0.6-0.9,1.7-0.8,2.7-0.9c0.9-0.1,1.4,0.5,1.2,1.4c-0.6,2.8,1.8,4,3,5.9
			c1.5-0.1,2.1,1.1,2.9,1.9c1.5,1.5,3.1,0.7,4.4,0.2c1.7-0.8,0.8-2.7,0.9-4.2c-0.5-1.9-1.8-2.4-3.5-2.2c0,0,0,0.1,0,0.1c0,0,0,0,0,0
			c0,0,0,0,0,0c0,0,0,0,0,0l0,0c0,0,0,0,0,0c0.3,0.2,0.6,0.3,0.8,0.5c1.2,1,1.6,2.4,1,3.8c-0.3,0.8-1.2,0.6-1.9,0.2
			c-1.3-0.9-2.9-1.9-2.8-3.4c0.1-1.3,1.7-1.2,2.9-1.1c0,0-0.1,0-0.1-0.1c0.1,0,0.1,0,0.2,0c0.4-1.7-1.6-2.2-1.9-3.6
			c-0.2-0.9-1.1-1.8,0.5-2.3c1.1-0.3,1.8-0.7,1.2-2c-0.6-1.3-1.4-2-2.9-1.6c-1.3,0.3-2.6,1.8-3.8,0.1c-0.5-0.7,0-1.4,0.6-1.9
			c1.7-1.8,3,0.2,4.5,0.8c0.6-1.6-1.8-5,2.7-4c1.3,0.3,0.9-1.8,0.2-2.9c-0.9-1.4-2.3-2.5-1-4.5c0.7-1.1-0.3-2.5-1.8-2.3
			c-4.2,0.7-3.6-1.4-2.6-4c0.9-2.4,1.3-4.7-0.6-6.8c-0.8-0.9-1.6-2-3.1-1.4c-1.2,0.5-2,1.5-2,2.8c0.2,4-1.5,4.1-4.9,3.1
			c-2.1-0.6-4.2-0.7-5.9-2.2c-0.7-0.6-1.6-1.5-0.7-2.4C697.7,153,698,154.2,698.7,154.8z M711.6,166.5c1.6,1.1,3.1,1.9,4.4,3
			c0.8,0.7,1.8,2.4,0.6,3c-1.2,0.7-2.6,2.6-4.5,1.2c-0.5-0.4-0.8-0.7-0.7-1.5c0.3-1.5,1.9-0.7,2.7-1.7
			C713.5,169.1,711.6,168.7,711.6,166.5z M712.1,175.4c-0.5,1.8-2.3,1-3.5,1.7c0.6-1.4,0.9-3.1,2.8-2.8
			C711.7,174.4,712.2,175.2,712.1,175.4z M706.5,166.1c0.4-3.5,2.1-4.1,4.9-4.1C709.7,163.4,708.4,164.4,706.5,166.1z M714.6,185.6
			c1.4,1.1,0.2,2.5-1.3,3.5c-0.7-3.8-5.7-4-6.6-8.3C710.4,181,712.3,183.8,714.6,185.6z M697.7,150.6c0,0.6-0.1,1-0.7,0.9
			c-1.8-0.4-2.2-1.9-2.8-3.5C696.3,148.1,697.6,148.6,697.7,150.6z M689.1,150.3c0.9-0.7,2-0.8,2.4,0.4c0.4,1.4-1,0.8-1.5,0.9
			c-1.1,0.2-1.5,2.1-3.1,1.1C687.1,151.5,688.2,151,689.1,150.3z M675.8,145.6c2.3-0.2,3.5,1.6,4.6,3.9c-2.3-0.6-4.6,1.8-6-0.9
			C673.9,147.5,674.8,145.7,675.8,145.6z M664.8,147.7c1.2,0.3,3.2,0.4,2.9,1.9c-0.4,2.2-1.6-0.6-2.6-0.1c-0.6,0.3-1.6-0.1-2.7-0.3
			C663.2,147.8,663.8,147.4,664.8,147.7z M647,205.3c3-7,4.6-14.6,9.4-21c5.2-6.9,11.2-12.5,19.1-16.1c4.3-1.9,8.7-1.3,12.9-0.2
			c3.2,0.9,5.2,5,5.1,10.7c-0.8,5.7-3.1,12.1-7.9,17.8c-9,10.8-21,13.5-34,14.2C648.1,211.1,645.7,208.2,647,205.3z M518.1,214.3
			c-0.6-0.1-1.5-0.3-1.6-1.3c-0.1-0.8,0.3-1.5,1.1-1.5c1,0,2,0.3,2.1,1.5C519.8,213.8,519.3,214.4,518.1,214.3z M524.7,216.3
			c-0.1-0.8,0-1.4,0.7-1.7c1.3,0,1.5,0.9,1.7,1.7c0.3,0.9-0.2,1.4-1.1,1.4C525.2,217.7,524.8,217.1,524.7,216.3z M528.2,225.8
			c-1-0.2-2.2-0.3-2-1.5c0.1-1.4,1.2-1.8,2.4-1.3c0.9,0.4,2.2,0.4,2.5,1.7C530.3,225.7,529.3,226,528.2,225.8z M535.4,219.9
			c-0.5-0.3-1.1-0.6-1.3-1.1c-0.8-2.1-2.5-3-4.8-3.6c1-0.9,1.6-2.5,2.9-1.2c1.6,1.5,3.8,2.7,3.9,5.3
			C536.1,219.5,535.5,220,535.4,219.9z M537.1,208.9c1.7,0.2,3.2-2.1,4.9-0.2c0.5,0.6-0.1,1.3-0.8,1.7
			C539.5,211.3,538,211.4,537.1,208.9z M547.5,198.7c-0.4,1.9-0.6,4.1-2.9,4c-1.2,0-2.2-1.4-1.9-2.6
			C543.3,196.9,546,199.8,547.5,198.7z M541.4,161.6c-2.3,0.4-2.7-1.5-0.9-4.6c1.9,0.7,3.2,2.9,5.7,2c0.3-0.1,1,0.3,0.9,0.9
			c-0.1,0.4-0.6,0.9-0.9,0.9C544.6,160.9,543,161.3,541.4,161.6z M551.9,162.4c1.2,0.7,3,0.6,2.8,2.3c-0.1,0.7-1.2,1.5-2,1.2
			C550.9,165.3,552.4,163.6,551.9,162.4z M557.3,191.6c2.2,0.5,3.6,2.4,2,5c-0.2,0.3-0.1,0.7-0.1,1.8c-1.5-1.6-2.3-3.5-4.3-1.6
			c-0.8,0.7-2.1,0-1.5-1.3C554.1,193.7,554.7,191,557.3,191.6z M553.9,198.5c-1.5,1.3-2.9,2.4-4.3,3.6c0,1.4,1,2.8-0.4,4.2
			c-1.3-1.6-4.1-3-0.3-4.9C549.6,199.1,550.4,197,553.9,198.5z M544.2,215.2c0.3,0.5,0.3,1.3-0.5,1.4c-1.6,0.3-1.5-1.2-2-2.1
			c-0.4-0.7,0.2-1,0.7-1.3C544,213.1,543.8,214.5,544.2,215.2z M541.3,225.7c-1.6,1.3-2.1-0.9-2.5-1.5c-1-1.6,0.9-2.9,1.8-2.8
			c2.7,0.3,5.4-0.1,8.3,0.4C546,222.6,543.5,223.9,541.3,225.7z M552.7,211.6c-0.1-0.5,0.9-1.6,1.2-1.6c1.7,0.4,2.8,1.6,3.3,4.5
			C555.3,212.9,553,213.9,552.7,211.6z M561.8,206.9c-0.5,1.3-1.5,0.5-2.4,0.6c-3,0.3-6.1-0.2-9.1,0.6c-2.1,2.3-0.8,5.5-1.8,8.2
			c-4.1-3.5-3.8-4.8,1.6-8.8c0.1-0.1,0.1-0.1,0.2-0.1c0.2-1.2,4.3-1.3,0.9-3.4c-0.4-0.3-0.3-0.9,0.2-1.2c1.2-0.6,2.9-0.6,3.2,0.5
			c1,2.9,2.1,3,4.2,1.1c0.6-0.5,2.2-0.6,3,0.3C562.3,205.3,562.1,206.3,561.8,206.9z M578.6,171.9c-0.3,3.3-0.5,5.7-1.4,8
			c-0.3,0.8-0.4,2.2-1.7,1.9c-1.4-0.3-1.8-1.6-1.6-2.8C574.3,176.3,575.8,174.2,578.6,171.9z M548.3,145.9c1.7-0.5,3.3,0.5,4.9,1.4
			c-1.8-0.3-3,3.1-5,0.9C547.6,147.6,547.7,146.1,548.3,145.9z M548.3,154.8c1.6,1.5,4.2,1,5.8,0.5c1.4-0.4,1-2.6-0.6-3.6
			c0,0,0,0-0.1,0l0,0c0,0-0.1,0-0.1,0c-0.2,0.3-0.4,0.5-0.5,0.8c-0.4,1.3-1.2,1.8-2.4,1.3c-0.7-0.3-0.9-0.8-0.6-1.5
			c0.5-1.3,1.5-1.5,2.7-0.9c0.3,0.1,0.6,0.2,0.9,0.3c0,0,0,0,0-0.1c0,0,0.1,0.1,0.1,0.1c4,0,8.4-2.4,11.4,2.3c0.8,1.2,2.1,1,3.1,1.7
			c4.4,3.1,7.8,11.9,5.2,16.4c-1.4,2.4-2.3,4.6-2.9,7.1c-0.2,0.7-0.5,2-0.1,2c4-0.4,2.7,4.3,5.3,5.4c1.1,0.4,0.3,1.8-0.7,1.5
			c-2.2-0.7-2.2,1.3-3.1,2.2c2,1.8,3.6,3.2,0.4,5.8c-0.9,0.7-0.7,4.4-0.8,6.7c-0.1,3.2-3.1,5.5-6.2,5.1c-0.8-0.1-1.4-0.3-1.4-1.2
			c0-0.7,0.3-1.2,1-1.2c1.6-0.1,2.9-0.4,3.2-2.3c-2.5,0.2-3.4-3.7-6.3-2.5c-1,0.4-1.5,1.6-2.9,1.5c-0.1-3.4,6.9-3.8,3.6-8.3
			c-1.4-2.1-4-3-5.3-5.2c-0.3-0.6-1.3-0.9-0.7-1.8c0.6-0.9,1.7-0.8,2.7-0.9c0.9-0.1,1.4,0.5,1.2,1.4c-0.6,2.8,1.8,4,3,5.9
			c1.5-0.1,2.1,1.1,2.9,1.9c1.5,1.5,3.1,0.7,4.4,0.2c1.7-0.8,0.8-2.7,0.9-4.2c-0.5-1.9-1.8-2.4-3.5-2.2c0,0,0,0.1,0,0.1c0,0,0,0,0,0
			c0,0,0,0,0,0c0,0,0,0,0,0l0,0c0,0,0,0,0,0c0.3,0.2,0.6,0.3,0.8,0.5c1.2,1,1.6,2.4,1,3.8c-0.3,0.8-1.2,0.6-1.9,0.2
			c-1.3-0.9-2.9-1.9-2.8-3.4c0.1-1.3,1.7-1.2,2.9-1.1c0,0-0.1,0-0.1-0.1c0.1,0,0.1,0,0.2,0c0.4-1.7-1.6-2.2-1.9-3.6
			c-0.2-0.9-1.1-1.8,0.5-2.3c1.1-0.3,1.8-0.7,1.2-2c-0.6-1.3-1.4-2-2.9-1.6c-1.3,0.3-2.6,1.8-3.8,0.1c-0.5-0.7,0-1.4,0.6-1.9
			c1.7-1.7,3-0.1,4.4,1.1c0.7-1.9-1.6-5.3,2.8-4.3c1.3,0.3,0.9-1.8,0.2-2.9c-0.9-1.4-2.3-2.5-1-4.5c0.7-1.1-0.3-2.5-1.8-2.3
			c-4.2,0.7-3.6-1.4-2.6-4c0.9-2.4,1.3-4.7-0.6-6.8c-0.8-0.9-1.6-2-3.1-1.4c-1.2,0.5-2,1.5-2,2.8c0.2,4-1.5,4.1-4.9,3.1
			c-2.1-0.6-4.2-0.7-5.9-2.2c-0.7-0.6-1.6-1.5-0.7-2.4C547.3,153,547.6,154.2,548.3,154.8z M561.2,166.4c1.6,1.1,3.1,1.9,4.2,2.9
			c1.4,1.4,2.2,2.9-0.5,4c-1.4,0.6-2.9,1.5-3.7-0.2c-1.1-2.2,1.7-1.6,2.5-2.4C563.3,169.1,561,168.8,561.2,166.4z M560.9,174.4
			c0.3,0.1,0.8,0.8,0.7,1.1c-0.6,1.6-2.2,1.3-4.2,2C558.7,175.7,559,174,560.9,174.4z M556.4,165.7c-0.4-3.4,1.9-3.3,3.4-4.1
			c0.2,0.3,0.4,0.5,0.6,0.8C559.2,163.4,557.9,164.5,556.4,165.7z M564.3,185.8c0.9,0.9,0.6,1.2-1.5,3.6c-0.6-4.4-6-4.3-6.3-8.7
			C559.9,181.3,562.1,183.6,564.3,185.8z M547.2,150.3c0.1,0.5,0.2,1.2-0.4,1.1c-2-0.1-2.4-1.8-3.3-3.4
			C545.6,148,547,148.3,547.2,150.3z M541.6,151.5c-2.2-0.5-3.3,1.3-5.2,1.6C538.5,149.6,539.1,149.3,541.6,151.5z M525,145.7
			c2.5-0.8,3.4,1.5,5.6,3.8c-2.9-0.7-5.1,1.6-6.6-1C523.4,147.6,524.3,146,525,145.7z M516,148.2c0.7,0.3,1.9,0.5,1.4,1.7
			c-0.6,1.5-1.2-0.1-1.9-0.2c-1.1-0.1-2.1-0.3-3.5-0.5C513.2,146.9,514.6,147.6,516,148.2z M496.5,205.3c3-7,4.6-14.6,9.4-21
			c5.2-6.9,11.1-12.5,19.1-16.1c4.3-1.9,8.7-1.3,12.9-0.2c3.2,0.9,5.2,5,5.1,10.7c-0.8,5.7-3.1,12.1-7.9,17.8
			c-9,10.8-21,13.5-34,14.2C497.7,211.1,495.3,208.2,496.5,205.3z M216.5,128.2c0.1-2,2.3-0.4,3-1.5c1.2-0.3,1.9,0.2,1.9,1.2
			c0,1.6-1.2,1.9-2.5,2C217.6,130,216.4,129.5,216.5,128.2z M218.5,132.5c1.9-0.9,3.9-1.2,6.2-0.8
			C223,135.9,220.4,131.9,218.5,132.5z M225.3,123c0.4-2.2,2.7-0.9,3.9-1.8c0.5-0.3,1.1,0.1,1.1,1.1c-0.7,1.3-2,1.8-3.5,1.9
			C226,124.2,225.2,123.9,225.3,123z M228.3,134.3c0,0-0.2-0.7-0.4-1.4c-0.2-0.9-0.1-1.8,0.9-1.9c0.9-0.1,1.5,0.7,1.5,1.6
			C230.4,133.4,230,134,228.3,134.3z M234.5,134.6c-1,0.7-1.7,0.6-2.6-0.1c-0.8-0.6-0.7-1.3-0.3-2.3c0.4-1,0.8-1.6,1.9-1.8
			c2-0.3,3.4,1.3,5.3,1.9C237.4,133.1,235.8,133.7,234.5,134.6z M243,133c-0.7,0.5-1.1-0.2-1.4-0.6c-1.7-1.9-0.2-5-2.5-6.8
			c-0.2-0.2,0.5-1,1-0.9c1.4,0.2,2.1,0.7,2,1.9c-0.1,1.7-0.1,3.3,1.2,4.7C243.6,131.8,243.7,132.6,243,133z M250.9,121.5
			c-1-1.8,0.2-3.3-0.1-4.7c0,0-0.1,0-0.1,0.1l0,0c0,0,0,0,0,0c0,0,0,0,0,0l0,0c0,0,0-0.1,0-0.1c-1,0.1-1.4,1-2,1.7
			c-0.1,1.3-3.8,2.8,0.4,3.8c1,0.2-0.2,1.3-0.2,2c0,0,0.1,0,0.1,0l0,0c0,0-0.1,0.1-0.1,0.1c1.8,0.4,2.4,2.5,1.2,4.3
			c-1.4,2.1-2.7-0.4-4.2,0c-1.2,0.4-1.5-0.9-1.5-2c0-1,0.5-1.7,1.6-1.4c1.4,0.5,2.3,0,3-1c0,0,0,0,0,0c0,0,0-0.1,0-0.1
			c-1.8,0.1-3.7,0.6-4.8-1.8c-0.6-1.4-1.9-0.9-2.5,0.2c-0.7,1.4-1.8,0.9-2.8,0.9c-1.4,0-1.5-1-1.4-2c0.1-1.1,0.5-1.8,1.8-1.3
			c1.6,0.6,3.1,0.6,3.7-1.4c-2.7-0.2-4.7-1.1-4.8-4.4c0-1.1-0.5-2,0.5-2.9c1.3-1.2,1.8-0.1,2.5,0.7c0.1,0.2,0.8,0.3,1,0.1
			c1.3-0.8,3.6-0.6,3.2,0.3c-0.7,1.9,1.7,5.1-2.1,5.7c2,2.6,3.2-0.3,4.7-0.7c1.1-2.8,1.1-2.8-2-7.7c4-0.6,5,0.4,4.3,4.4
			c-0.1,0.8,0.2,1.6,0.3,2.4c0,0,0.1,0,0.1,0c0,0,0,0,0,0.1c0.8-0.4,1.9-0.3,2.1,0.5C253.3,118.9,252.2,120.1,250.9,121.5z
			 M258.6,102.2c1.4,0.3,2.9-0.1,2.7,2.3c-0.2,2,0.1,4-2.5,4.6c-2.3,0.5-4.4,3.4-6.7-0.1c-1.3-1.9-1.9-3.9,0.1-5.5
			c1.7-1.3,0.6-2.2,0-3.3c-1.7-2.3-2.9-4.7-0.7-7.4c1.2-1.4,2.3-0.6,2.9,0.4c0.9,1.4,0.4,2.7-1.1,3.5c0.2,0.2,0.5,0.3,0.7,0.5
			c1.3-0.3,2.7-0.4,3.7-1.1c1-0.7,1.7-1.2,2.8-0.5c1.3,0.7,0.7,1.9,0.7,2.9c-0.1,1.4-1.3,1.1-2.2,1.3c-0.7,0.1-1.4,0.3-2.1,0.4
			C256.7,101.5,257.7,102,258.6,102.2z M255.8,88.5c0.7,0.5-0.1,1.3-0.7,1.8c-1,0.9-2.1,0.4-3.1,0.2c-1.1-0.2-0.3-0.8-0.2-0.9
			c0.7-1.2,0-1.7-0.4-2.2c-1.5-2.3-0.4-5.2,2.2-5.5c0.8-0.1,1.8,0.1,2.4,0.5c1.3,0.8-0.3,1.4-0.4,2.1C255.6,85.7,254,87,255.8,88.5z
			 M252.1,80.4c0.2-1.2,1.8-1.8,0.8-3.1c-0.7-0.9-2.2-0.1-3.1-2.1c2.8,0.6,3-2.6,5.8-3C253.2,74.7,258.5,79.4,252.1,80.4z
			 M249.3,73.7c-1.5-2.6,1.3-5.6-2.1-7c1.2-0.6,2.4-1.9,3-0.4C251.1,68.6,251.1,71.1,249.3,73.7z M248.5,101
			c0.5-0.3,1.1-0.6,1.6-0.1c0.5,0.6,0.1,1.2-0.4,1.5c-2.7,1.6-2,3.4,0.4,6c-3.4-0.6-4.5-2.6-4.8-4.3
			C245,102.6,247.2,101.9,248.5,101z M243.8,69.9c-1.5-0.1-1.6-1.9-1.7-3.1c-0.1-0.8-0.3-1.8,1.2-1.8c1.1,0.3,2.3,0.9,2.3,2.2
			C245.6,68.3,245.2,70,243.8,69.9z M243.3,107.3c0.8,0.1,1.3,0.5,1.2,1.4c-0.2,1-1,1.4-1.8,1.3c-0.7-0.1-1.3-0.7-1.2-1.5
			C241.6,107.5,242.3,107.2,243.3,107.3z M239,64.2c-1.1,0-1.6-0.4-1.4-1.5c0.3-1.4,1.3-2,2.6-2c0.9,0,1.4,0.8,1.6,1.7
			C241.3,63.6,240.4,64.2,239,64.2z M257.3,121.7c-0.2,0.9-0.7,1.8-1.9,2c-0.7,0-1.2-0.3-1.2-1.1c0.1-1.1,0.8-1.8,1.9-1.9
			C256.8,120.7,257.5,121,257.3,121.7z M262.9,115.9c-0.6,2.3-1.9,3.8-4.3,3.4c-2.5-0.5-3.4-2.6-3.9-4.8c-0.3-1.1,1-1.3,1.4-0.9
			c2.8,2.5,3.6,0.1,4.7-2.4C261.5,113.1,263.4,113.8,262.9,115.9z M259.3,60.8c0.8-0.7,1.9-0.4,2.6,0.3c1.7,1.6,3.8,2.4,3.7,5.7
			c-0.1,4,2.6,6.7,6.6,7.6c0,1.2-0.9,1.7-1.4,1.6c-3.9-0.8-4.6,2.8-6.6,4.7c-0.8,0.8-0.2,1.6,0.7,2.4c2.5,2.3,4.8,4.8,4.6,8.7
			c0,1.2,0.3,2.8-0.5,3.4c-2.4,1.9-2.4,4.6-3,7.1c0.2,2.7,1.2,5.8-3.3,6.2c-0.7-2.7,2.3-4.4,2.1-6.9c-1.5-0.6-2.1-1.9-2.8-3.4
			c1.7-0.5,3.7-0.3,3.7-2.7c0-2.2,0.1-4.5-2.1-5.9c-2.4-1.6-4.1,0.2-5.9,1.2c-0.8-0.8,0.4-1.7,0.2-1.9c-2.2-2.4-0.3-3.8,1.2-5.3
			c0.4-0.4,0.4-0.9,0-1.3c-2.7-2.7-0.6-3.3,1.6-4c3.9-1.3,4.4-2.7,3.2-6.5c-0.9-3.1-2.1-5.9-4.3-8.4
			C259.3,62.7,258.4,61.7,259.3,60.8z M257.9,67.9c0.9-0.5,1.9,0,2.6,0.8c1.1,1.4-0.3,1.5-1,1.9c-0.3,0.2-0.4,0.6-0.5,0.9
			c0.4,0.3,0.8,0.6,1,1c0.6,1.1,3.1,1.6,1.5,3.4c-1.1,1.3-2.8,0.8-4-0.1c-1.7-1.2-0.4-2.5,0.3-3.7c0.1-0.2,0.3-0.3,0.5-0.5
			c-0.1-0.4-0.1-1-0.3-1.3C257.5,69.4,256.6,68.6,257.9,67.9z M245.8,52.7c2,2.1,4.2,4.1,6.4,6.1c0,0,0,0,0,0c0,0,0,0,0,0
			c0,0,0.1,0,0.1,0c0.7-2.5,1.5-4.7,5.2-2.7c-1.2,1-2.9,1.1-3.1,2.7c0,0,0.1,0,0.1-0.1c0,0.1,0,0.1,0.1,0.2c1,0.8,1.7,2.4,2.9,6.8
			c-1.6,1-3.4-1.4-5.1,0.3c-0.6,0.6-1.2-0.5-1.3-1.2c-0.2-1.2,0.1-2.2,1.4-2.6c1.8-0.5,2.7-1.5,2.1-3.4c0,0-0.1-0.1-0.1-0.1l0,0
			c0,0,0,0,0,0c0,0,0,0,0,0l0,0c0,0,0,0,0,0c-0.7,0.7-1.4,0.1-2,0c0,0,0,0,0,0.1c0,0,0,0,0,0c0,0,0,0-0.1,0c-0.3,2.5-2,1.7-2.6,0.6
			c-1.3-2.3-3.1-4-5.3-5.4c-0.7-0.5-1.1-1.3-0.7-2.2c0.1-0.3,0.5-0.6,0.8-0.7C245.7,51,245.4,52.2,245.8,52.7z M240.9,50.1
			c0.5-1.6,1.9-2.3,3.9-3.4c-0.5,2.5-1.4,3.7-3,4.2C241.3,51,240.7,50.7,240.9,50.1z M233.8,52.2c0.8-0.9,2-0.8,2.7-0.3
			c3,2.4,6.4,4.4,8.4,8.5c-3,0-4.7-2.2-7.2-2.2c-2.3,0-4.6-0.8-5.9,2.1c-0.3-0.4-0.5-0.6-0.6-0.8c-0.3-1-0.5-2.1-0.7-3.3
			c1.3-0.1,2.4,0,3.5-0.2c1-0.2,2-0.8,0.4-1.8C233.7,53.8,232.9,53.2,233.8,52.2z M233.2,46.7c-0.2,2-0.4,3.7-0.7,5.5
			c-0.1,0.7-0.4,1.6-1.3,1.4c-0.5-0.1-0.9-1-1.3-1.6C231.7,50.7,230.3,47.5,233.2,46.7z M227.3,52.5c1.1-0.2,1.7,1,1.5,2
			c-0.2,1.1,0,3-1.2,3.1c-2.2,0-0.1-1.9-0.8-2.7C226.8,54,225.7,52.7,227.3,52.5z M221,50.9c0.9,0.3,2.4,0.7,1.9,1.7
			c-0.3,0.6-0.7,2.1-2.1,2.1c-0.7-0.8-1.7-1.6-2.1-2.6C218.5,51.7,219.8,50.5,221,50.9z M158.4,101.1c1.9-3.9,4.8-7.1,7.8-10.1
			c12.2-12.7,27.4-19.9,44.5-22.8c7.2-1.2,14.7-0.6,21.4,3c3.6,2,5.6,5.1,6.4,9.2c3.3,17.6-9.8,32.5-25.5,36.5
			c-6.1,1.6-12.3,1.9-18.5,2.3c-12.6,0-23.4-5.4-34.1-11C157.5,106.7,157,104.1,158.4,101.1z M133.4,248.8c2.4-1.6,0.7,2.7,2.7,2.9
			c1.1,0.1,2.2,1,3.4,1.6c-1.2,1.2-0.5,3.3-2.4,3.3c-1.6,0-3.2-0.6-2.8-2.5C134.7,252,131.4,250.1,133.4,248.8z M123.5,135.2
			c1.5,2.4,0,3.4-1.4,4.4c-0.8,0.6-1.8,1.2-2.4,0c-0.8-1.3,0.8-1.1,1.3-1.6C121.8,137.2,122.5,136.3,123.5,135.2z M122.6,144.9
			c-0.1,0.7-0.3,1.5-1.2,1.3c-1-0.2-1.7-0.9-1.8-2c0-0.7,0.4-1.1,1.1-1.1C121.9,143.1,122.6,143.6,122.6,144.9z M118.5,130.8
			c0.6-0.5,1.6-0.2,1.8,0.5c0.5,1.6-0.7,2.3-1.9,3C117.6,133.1,117.2,131.8,118.5,130.8z M120.5,148.3c1,1.2-0.3,1.8-1,2.2
			c-1.7,1-3.5,3.5-5.2,0c-0.1-0.2-0.3-0.3-0.5-0.5c1.7-0.9,2.5-2.7,3.3-3.8C119.4,146.1,119.8,147.4,120.5,148.3z M111.1,170.2
			c0.8-2.1,1.9-3.3,3.8-4C115.6,169.3,113.8,169.8,111.1,170.2z M111.5,176.1c-1.1-0.2-2.1-0.6-2.1-1.5c-0.1-1.4,0.4-1.8,1.3-1.8
			c1.2,0.1,2.1,0.6,2.3,1.8C113.2,175.7,112.6,176.3,111.5,176.1z M116.2,159.1c1.5,0.1,0.8,1.8,1.2,2.7c0.5,0.9-0.6,1.1-0.9,1.5
			c-1.8-0.2-1.2-1.4-1.5-2.3C114.8,159.9,115.3,159,116.2,159.1z M117.1,170.2c0.9,0,1.8,0.1,1.6,1.4c-1,0.9,0.5,3.2-1.2,3.3
			c-1.1,0.1-2.4-1.5-2.6-2.9C114.7,170.8,115.9,170.2,117.1,170.2z M118.7,204.4c-0.8,2.2-1.5,4-2.2,5.8c-0.5,1.4-1.4,2-2.8,1.2
			c-1.3-0.8-1.6-2-0.7-3.1C114.5,206.7,115.7,204.6,118.7,204.4z M113.8,118.5c0.9,0.3,1.7,0.8,1.9,1.8c-0.3,0.7-0.7,1.2-1.4,0.9
			c-0.8-0.4-1.9-0.5-2-1.8C112.3,118.4,113.1,118.2,113.8,118.5z M111.3,163.9c-0.4-1.2-0.8-2.2-1.2-3.1c-0.3-0.7-1.6-1.3-0.3-1.9
			c0.9-0.5,1.5,0.3,1.9,1.1C112.4,161.2,114.1,162.5,111.3,163.9z M110.1,145.7c1,0.3,1.2,1.2,1.2,2c0,0.9-0.4,1.7-1.5,1.6
			c-0.8,0-1.3-0.6-1.3-1.4C108.6,146.8,109.1,146,110.1,145.7z M99.2,163.7c0.4-1,0.4-2.5,2.1-2.7c1.4-0.2,1.9,1,2.7,1.6
			c1.3,0.9-0.1,1.8-0.5,2.7c-0.4,0.9-1.1,1.6-1.7,2.4c0.2,1.5,1.9,3,0.3,4.8c-2.1-1.2-1.7-3-1.4-4.8
			C99.9,166.4,98.5,165.4,99.2,163.7z M99.1,202.4L99.1,202.4c0,0-0.1-0.1-0.1-0.1c-0.3,0.9,1.1,2.6-0.4,2.7
			c-1.6,0.1-3.5,1.8-5.1-0.5c2.1-0.3,2.3-4.8,5.5-2.2c0,0,0,0,0,0c0,0,0.1,0,0.1,0c0-2.2-1.2-5.4,3.4-3.5c1.1,0.5,1.1-1,0.6-1.7
			c-1-1.5-1.1-2.8,0.2-4.5c0.8,2.3,1.6,4.4,2.4,6.4c0.7,1.9-0.1,3.5-2.9,3.6c-1.3,0-2.5-0.3-3.7-0.3
			C99.1,202.3,99.1,202.3,99.1,202.4z M102.8,187.7c-0.9-0.4-3,0.2-2.3-1.8c0.6-1.7,2-0.5,3.1-0.2c1.3,0.3,2.5,0.9,2.7,2.7
			C104.8,188.7,103.8,188.2,102.8,187.7z M100.4,178.7c0.6,1.9,1.3,3.8-0.3,5.1c-0.7,0.5-2-0.1-2.4-1.1
			C96.5,180.2,99.8,180.4,100.4,178.7z M96.5,188.2c0.2-0.2,1-0.1,1.3,0.1c1,1,1.2,2-0.2,2.9c0.5,1.5,3.1,1,2.9,3.1
			c0,0.2-0.6,0.5-0.8,0.4c-1.9-0.4-2.7-1.8-3-3.6C95.4,190.2,95.7,189.2,96.5,188.2z M94.4,195.5c1,0.3,2,0.8,2.4,1.9
			c-0.3,1.2-1.3,0.7-2.1,0.8c-1.2,0.2-1.8-0.5-1.8-1.6C92.9,195.8,93.6,195.2,94.4,195.5z M92.5,213.2c2.2,0.1,3.5,1.2,4.7,2.7
			c0.8,1,1.7,1.7,2.9,2c4.4,1.1,4.9,2,4.4,6.5C99.7,221.6,92.3,221.6,92.5,213.2z M96.7,227.7c0.2-1.8,0.9-3.2,2.3-3.9
			c1.2-0.6,1.7,0.8,1.9,1.6c0.8,2.6,2.6,3.3,5,3c2.4-0.3,4.9-0.4,7.1-1.2c1.4-0.5,3.2-2.4,2.4-3.8c-1-1.8-2.8-4.3-5.3-3.5
			c-2.9,0.9-4.3-0.8-5.9-2.4c-0.7-0.7-1-1.8,0-2.2c4.2-1.6,0.3-3.1,0-4.7c-1.5-0.2-2.9,0.3-4.2,1.1c-1,0.6-2,1.2-2.7-0.1
			c-0.9-1.8,0-3.3,1.3-4.5c1-0.9,1.9-0.6,2.8,0.4c0.6,0.7,1,1.7,2.1,1.9c0-0.8,0.1-1.7,0-2.5c-0.1-1.7-0.5-3.4,2.4-2.2
			c2.1,0.9,3-0.7,2.4-2.5c-0.6-2-1.5-3.8,0.8-5.4c1.1-0.8,0.4-2-0.8-2.5c-1.2-0.6-2.1-1.4-1.9-2.8c0.3-1.4,1.7-1.8,2.8-2
			c2-0.4,3.7-1.2,5.1-2.6c1.1-1,1.9-2.5,1.3-3.9c-0.7-1.6-2.6-1.7-4.2-1.5c-0.8,0.1-1.6,0.6-2.4,0.9c-2.3,1-3.4,0.1-3.5-2.3
			c-0.1-1.7,0.5-3.7-1.7-4.7c-0.5-0.2,2.9-6.1,3.7-6.1c0.6-0.1,1.3,0.1,1.6,0.6c0.4,0.7,0.2,1.1-0.6,1.7c-2.9,2.1,1.4,4.5,0,6.7
			c1.4,0.6,2.8,0.4,4.1-0.3c0.4-0.2,1-0.9,1-0.5c0.1,3.4,5.9,4.6,3.4,8.9c-0.3,0.5-0.4,1.1,0,1.7c3.9,6.5-2.1,10.6-3.8,15.7
			c-0.2,0.7-0.9,0.7-1.5,0.7c-2.1-0.2-2.5,1.2-2.4,2.8c0,1,0,1.8-0.5,2.7c-0.7,1.3-0.8,2.7,1.5,2.3c1.1-0.2,1.9,0.6,2.4,1.4
			c1,1.4,2,2.6,3.9,1.9c0.1,1.7-1.1,1.4-1.8,1.6c-1.4,0.4-1.1,1.4-1.1,2.3c0.1,1.4,1.2,1.1,1.9,0.9c2.6-0.6,3.3,0.2,2.1,2.5
			c-0.5,1-0.9,1.7,0.7,2c2.1,0.4,2.9,2.7,4.9,3.6c1.9,0.9,0.5,6.4-1.5,6.8c-1.9,0.4-1.6-1-1.2-2.1c0.3-0.8,1-1.6,0.3-2.3
			c-1-1-1.4,0.4-2,0.7c-4.7,2.2-4.7,2.2-4.7,7.7c-1.2-2-2.9-2.8-2.1-5.6c0.7-2.5-3.5-4.9-7.4-4.2c-1.9,0.3-3.7,0.7-5.6-0.1
			C97.9,229.1,96.5,229.9,96.7,227.7z M110.2,221.5c1.5-0.2,2.8,1,3,2.6c0.2,1.7-1.2,1.4-2.3,1.6c-1.6-0.4-4,0.2-4.3-1.8
			C106.4,221.9,108.8,221.6,110.2,221.5z M125.2,242.8c-0.5,1.5-0.2,3.6-2.7,3.5c-0.6,0-1.6-0.3-1.3-0.8
			C121.9,243.9,123.5,243.2,125.2,242.8z M102.4,245.5c-1.2-1.4-2.6-2.8-2.6-4.8c0-0.6,0.7-0.9,1-0.5c1.2,1.3,1.9,3,3.5,4
			C103.9,245.1,102.8,245.9,102.4,245.5z M106.3,239.7c0.2,0.7,0.2,1.8-0.9,2.1c-0.8,0.2-1.4-0.4-1.8-1.1c-0.7-1.2-1.4-2.3-1.8-3.6
			c-0.6-1.6-1.8-3.8,0.4-4.8c1.9-0.8,4.3-0.9,5.6,1.7c0.3,0.6,0.9,1.1,2,2.4C106.7,236.1,105.4,236.9,106.3,239.7z M112.6,257.1
			c-1,0.9-1.8,2.3-3.6,1.5c-1-0.5-1.8-1.1-1.4-2.5c0.5-1.6,0-3.3-0.1-5c1.9,1,3.4,2,4.5,3.6C112.5,255.5,113.7,256.1,112.6,257.1z
			 M111,251.5c-0.2-0.4-0.2-0.9-0.3-1.4c-2.2-1.9-5.7-3.4-2.5-7.5c1.2,2.1,2.1,4.2,2.6,6.4c0.7,0.1,1.4,0.2,2.1,0.2
			c1.3-0.1,2.9-0.3,3.5,1.1c0.4,0.9-0.8,1.6-1.7,2.1C113.2,253.3,111.9,253.1,111,251.5z M118.4,268.6c-1.6,0.3-2.5-0.5-2.9-2
			c-0.2-0.7,0.2-1.2,0.9-1.3c1.7-0.3,2.1,1.2,3,1.9C119.6,268.3,118.9,268.5,118.4,268.6z M115.8,257.8c-0.6,0-1.4-0.3-1.1-0.6
			c1.2-1.4,2.4-2.8,3.9-3.9c0.5-0.4,1,0.5,0.9,1.2C119.4,256.8,117.1,256.7,115.8,257.8z M122.9,265.2c-0.7-1.2-1.4-2.5-2.2-3.7
			c-0.6-0.8-1.4-1.6-0.3-2.4c1-0.7,2-0.3,2.9,0.6C124.9,261.5,124.8,262.9,122.9,265.2z M119,250.6c-0.8-1.1-1.5-2.2-2.3-3.3
			c-0.4-0.6-1-1.4-1.7-0.6c-0.9,1-1.7,2.2-2.5,0.2c-0.5-1.3,0-3.1,1.3-3.4c2.4-0.6,4.6-0.6,2.5-4.1c-0.4-0.7,0.4-3.6,3-2.9
			c1.3,0.3,2.1,0.6,1.1,2.4c-1.9,3.4-2.7,7.2-0.9,11c2.7,1.1,5.4,0.3,8.3-0.1C125.2,255.1,123,255.2,119,250.6z M126.4,261
			c1.8,0.8,3.1-1.3,4.9-0.8C129.6,263.8,129.2,263.9,126.4,261z M131.4,266.9c0.6-1.9,0.8-4.1,2.4-5.6c0.4-0.4,0.9-1,1.5-0.6
			c0.6,0.4,0.4,1.1,0,1.6c-1.3,2.2-3,4.3-0.5,7.1C132.1,269.8,130.7,269.4,131.4,266.9z M136.4,279.2c-1.3-0.3-2.7-0.7-3-2.1
			c-0.2-0.9,0.6-1.7,1.6-1.3c1.3,0.4,2.3,1.2,2.6,3C137.6,279.3,137,279.3,136.4,279.2z M137.7,274.2c-0.6,0-1.4-0.5-1.2-1
			c0.5-0.9,0.6-2.5,2-2.5c0.7,0,1.1,0.8,1.2,1.7C139.6,273.4,139,274.2,137.7,274.2z M138.4,266.3c-0.8,0.2-1.1-0.2-1.2-0.9
			c-0.1-1.2,0.6-1.7,0.9-1.8c1.4-0.3,1.8,0,1.9,0.7C140.2,265.5,139.4,266.1,138.4,266.3z M143.7,283.5c-1.3-0.1-2.3-0.7-2.5-2.1
			c-0.1-0.9,0.5-1.5,1.6-1.6c1.2,0.3,2.1,1,2.2,2.4C145,283,144.6,283.6,143.7,283.5z M143.5,266.3c-1.8-0.2-1.8-1.9-2-3.3
			c-0.2-1.2,0.3-1.5,1.8-1.4c1.1,0.2,1.9,1.3,1.9,2.7C145.1,265.2,144.6,266.4,143.5,266.3z M184.6,275.3c-0.1,0.7,0.2,1.8-1.1,1.7
			c-1.2,0-1.5-1.1-1.6-2.1c-0.1-0.9,0.2-1.8,1.3-1.8C184.5,273,184.6,274.1,184.6,275.3z M192.4,280c-0.9,0.2-2.1,0-2.1-0.8
			c0.1-1.8,1.6-0.5,2.4-0.8c0.8,0.3,2.1-1.4,2.2,0.3C195,280.1,193.4,279.8,192.4,280z M207.3,274c-0.7-0.1-1.4-0.8-1.1-1.6
			c0.6-1.6,2.1-1,3.5-1.3C209.1,272.5,209.2,274.2,207.3,274z M330.9,117.8c-0.8,1.2-2.8,0.8-4.1,0.4c-2-0.6-0.5-2.5-1-3.5
			c0-1.1-0.1-2,0-2.8c0.1-1,0.8-1.9,1.8-2c0.9-0.1,1.4,0.7,1.6,1.7c0.1,0.7,0.5,1.4,0.8,2C330.7,115,331.6,116.7,330.9,117.8z
			 M339,75.1c0-1.2,0-2.6,1.4-2.5c1.6,0.1,0.7,1.7,0.9,2.6c0.3,1.1-0.2,2-1.4,2C338.3,77.2,339.3,75.8,339,75.1z M330.9,64.6
			c0.4-0.9,1-1.3,2-0.8c2.1,1.1,4,2.3,4.5,5.1c-2.6-0.1-3.8-2.1-5.8-2.6C330.8,66.1,330.6,65.4,330.9,64.6z M326.7,80.9
			c2-1.3,3.4-3,4.6-5c0.4-0.7,1.3-1.3,2.2-0.6c0.6,0.5,0.1,1.3-0.3,1.6c-3.3,2.8-1.7,6.4-1.7,9.7c0,0,0,0,0,0l0,0.1c0,0,0-0.1,0-0.1
			c0,0,0,0,0,0c2.1-0.8,4.2-1.9,5.4,1.3c-2.3,1.7-3.8-0.1-5.4-1.3c0,0-0.1,0-0.1,0c0,0,0-0.1,0-0.1c-0.7-0.6-1.6-0.6-2.4-0.4
			c-1.3,0.2-2.7,0.3-3.1-1.1C325.6,83.6,325.4,81.8,326.7,80.9z M323.8,87.9c1.2,3,0.5,4.9-2.1,6.1c-1.1,0.5-2.4,0.1-2.5-1.2
			C318.8,89.5,321.9,89.4,323.8,87.9z M320.1,98.8c0.9-1.1,2.2-1.4,3.5-1.8c1.3-0.5,2.5-1.1,3.3-2.2c2.8-4.2,4.6-4.4,8.3-0.8
			c-1.8,1.4-4.9,1.3-5.5,4.2c-0.2,1.1-2.2,2.4-0.4,3.2c1.6,0.7,3.8,1.1,5.2-1.1c0.6-1,1.2-2.1,1.9-3.1c0.4-0.6,1-0.7,1.6-0.3
			c0.6,0.4,0.7,1.1,0.1,1.5c-2.8,1.8-2.4,5.6-5.2,7.6c-2.1,1.4-3.4,1.9-4.7-0.4c-0.5-0.8-0.7-1.8-0.9-2.8c-0.3-2-1.7-2.2-3.2-1.7
			c-0.9,0.3-1.7,0.9-2.8,0.8c-1-0.1-2.1-0.1-2.5-1.2C318.4,99.8,319.6,99.5,320.1,98.8z M319.5,111.2c1.2,0.3,1.4,1.9,2.7,2
			c0,0,0-0.1,0-0.1c0,0,0,0,0,0c0,0,0,0,0,0c0,0,0,0,0,0l0,0c0,0,0.1,0,0.1,0c0.1-1.7,1.3-3.3,0.6-5.1c-0.2-0.6,0.4-1.2,0.9-1.4
			c0.6-0.2,1,0.4,1.4,0.9c1.2,2-0.5,5.2-2.9,5.6c0,0,0,0.1,0,0.1c0,0-0.1,0-0.1,0c0.2,2.2,1.4,4.2,1.2,6.9c-2.5-2-4.8-3.8-7.1-5.6
			c-0.8-0.6-0.9-1.5-0.3-2.2C316.8,111.1,318,110.8,319.5,111.2z M321.1,125c-1.5-0.7-3-1.5-4.5-2.1c-1.1-0.4-1.8-1-1.4-2.1
			c0.5-1.2,1.7-1.9,3-1.4C320.5,120.5,322.4,122,321.1,125z M312.2,104.5c0.6-1.7,1.4-3.4,3.3-4c0.4-0.1,0.8,0.4,0.7,0.9
			c-0.9,1.6-1.3,3.7-3.2,4.4C312.4,106,312,105,312.2,104.5z M309.6,110.3c0.3-1.5,1.6-1.7,2.7-2.1c1.1-0.4,2.3-0.3,3,0.5
			c0.7,0.7,0.2,1.8-0.3,2.6c-0.7,1.1-1.2,2.3-1.9,3.5c1,1,5,0.2,2.1,3.4c-0.6,0.6-1.5,1.5-2.5,0.8c-0.9-0.6-0.9-1.5-0.3-2.5
			c0.3-0.4,0.1-1.1,0.1-1.7C311.1,113.6,309.1,112.8,309.6,110.3z M310.3,126.8c0.3-0.5,0.9-0.2,1.3,0.2c4,3.4,7.8,0.9,11.7-0.3
			c1.3-0.4,2.6-2.5,3.7-1c0.9,1.2-1.1,2.4-1.9,3.6c-1.8,2.5-5.1,3.5-6.6,6.5c-0.2,0.4-1.7,0.6-2.3,0.3c-0.9-0.4-1.2-1.8-0.8-2.5
			c1.9-3.3-1.3-2-2.1-2.7c-0.6,0.1-0.9,0.2-1.3,0.2c-0.8,0-1.6,2-2.3,0.4C309.1,129.9,309.5,128.2,310.3,126.8z M312.6,138.4
			c-0.2,0.4-0.3,0.7-0.4,0.8c-1.7,0.2-3.5,1.3-5.1-0.2c-0.4-0.3-0.3-1,0.2-1.2C309.1,136.9,310.8,137.4,312.6,138.4z M304.1,138.4
			c-1.8,0.2-2.1-1.4-2.5-2.6c-0.2-0.9,0.1-1.9,1.2-1.7c1.7,0.3,1.5,2,2.1,3.1C305.3,138.1,304.8,138.3,304.1,138.4z M308.5,122.3
			c0.2,0,0.5,0.9,0.4,1.2c-0.6,1.7-1.8,2-3.5,1.3C306,123.2,306.8,122.1,308.5,122.3z M305.8,147c0.3-1.7,0.7-3.3,2.6-3.4
			c1.3,0,2.8,0.8,2.6,2.4c-0.3,2-1.8,3.1-3.8,3.2C305.4,149.4,305.9,147.9,305.8,147z M313.2,155c-1.1,0.2-2.1,1.2-3.3,0.5
			c-0.4-0.3-0.3-0.9,0.1-1.3c1.1-0.9,2.3-1.7,3.8-0.7c0.3,0.2,0.6,0.3,1,0.6C314.2,154.4,313.7,154.8,313.2,155z M315.5,148.5
			c-1.2-0.1-2.3-0.5-2.2-1.9c0.1-1.3,1.2-1.7,2.4-1.7c1.2,0,1.8,0.6,1.9,1.6C317.6,148,316.8,148.6,315.5,148.5z M321.4,143.9
			c-1.2,0.7-2.3,1.6-3.3-0.2c-0.2-0.4-0.7-0.7-0.9-1.1c-0.6-1.3-3.3-1.3-2.5-3c0.4-0.8,2.7-0.6,3.9-0.9c1.4,0.4,3.5-0.2,3.7,1.3
			C322.5,141.1,323,142.9,321.4,143.9z M323.6,136.9c-1.1,0.7-1.8,0.3-2.2-0.8c-0.4-1.2,0.3-2,1.3-2.1c1.6-0.1,3.2,0.2,5.2,0.3
			C326.6,136.2,324.9,136.2,323.6,136.9z M326.8,123.4c-1,0-1.8-0.6-1.9-1.8c0-1.2,0.9-1.2,1.8-1.3c0.9,0.3,2.1,0.3,1.9,1.7
			C328.5,123,327.6,123.4,326.8,123.4z M355.8,160.7c-0.5,0.9-1.3,1.5-2.3,1.4c-0.8-0.1-1.2-0.9-1-1.6c0.4-1.3,1.5-0.9,2.4-0.9
			C355.7,159.6,356,160,355.8,160.7z M359.6,155.6c-0.5,2.1-1.6-0.2-2.5,0c-1,0.3-2.1,0-3.5-0.1c0.7-2.1,1.9-2.3,3.3-2
			C358.1,153.9,360,153.7,359.6,155.6z M396.9,158.7c0.3-0.7,0.8-1.3,1.6-1.3c1.6,0,1.2,1.5,1.6,2.4c0.8,1.7,2.4,3.2,1.1,5.8
			c-0.7-2.1-2.4-2.5-3.6-3.6C396.6,161.1,396.4,160,396.9,158.7z M397.5,166.7c0.1,1-0.5,1.9-1.8,1.8c-1.3-0.2-2-0.9-2-2.2
			c0-1,0.5-1.6,1.6-1.6C396.6,164.7,397.4,165.6,397.5,166.7z M391.9,154.9c2.8,2.1,3.6,4.1,1.1,7.1
			C391.9,159.6,391.6,157.5,391.9,154.9z M383.5,149.3c1.6,0.2,3.5-0.8,4.7,0.9c0.2,0.2-0.1,1.2-0.3,1.3c-2,0.2-4,0.3-5.9-1.8
			C382.8,149.5,383.2,149.3,383.5,149.3z M378.2,201.2c-1.5,0.2-2.5-0.1-2.3-1.6c0.3-1.9,1.6-3.1,3.4-3.3c2.1-0.1,2.1,1.9,2.1,3.2
			C381.6,202.5,379,200.3,378.2,201.2z M380.2,213.2c2.6,0.3,4.1,1.1,4.1,3.3c0,1-0.5,2.1-1.7,1.7c-1.8-0.7-3.6-1.7-4-3.7
			C378.4,213.6,379.8,213.2,380.2,213.2z M370.6,200.1c0.3-1.4,1.4-0.7,1.8,0.1c1.7,2.8,3.2,5.7,5.5,8.2c1.5,1.6,0.4,3.6-1.6,5.4
			c-1.1-2.6-2.8-4.3-4.7-5.9C369.5,206,370,202.8,370.6,200.1z M369.8,159.7c0.1-0.9,1-1.6,2.1-1.6c0.8,0,1.3,0.5,1.4,1.3
			c-0.3,0.8-0.7,1.6-1.7,1.5C370.9,160.8,369.7,160.7,369.8,159.7z M380.5,181.7c0.2-0.7,0.5-1.5,1.4-1.4c1.1,0.1,1.2,1,1.3,1.8
			c-0.1,0.8-0.4,1.4-1.3,1.3C380.9,183.2,380.2,182.8,380.5,181.7z M386.9,168.1c-2.3,1-3.5-2-5.7-1.3c-0.4,0.1-0.4-1.3,0.1-1.9
			c0.8-0.9,1.5-2,2.5-2.5c0.6-0.3,1.1,0.8,0.9,1.6C384.3,165.9,386.4,166.6,386.9,168.1z M385.4,176.3c-1.2,0.2-2.3-0.8-2.3-1.8
			c0.1-1.9,2.4-0.7,3.5-1.8C385.9,174,387.6,176,385.4,176.3z M381.6,191.2c0.2-1.6,1.4-2.2,2.9-1.4c0.5,0.3,0.6,1.6,1.6,0.7
			c0.5-0.5,0.3-1,0.1-1.6c-0.6-1.4,0-2.5,1.5-4.4c0.2,3.3,0.4,5.9,0.3,8.4c0,0.6-0.3,2.7-2,1.5C384.5,193.4,381.2,194.5,381.6,191.2
			z M386.6,180.3c-0.7-0.2-1.4-0.5-1.1-1.5c0.3-0.9,1.1-1.4,2-1c1.5,0.7,3.1,1.4,3.6,3.9C389.2,181.2,387.9,180.8,386.6,180.3z
			 M385.7,154c1.1-0.4,1.7,0.1,1.9,1.1c0.2,1.2-0.9,0.9-1.5,0.9c-1.9,0-3.6,1.8-5.6,0.2C382.2,155.4,383.9,154.7,385.7,154z
			 M380.5,192c0.5,0.8,0.7,1.9,0,2.4c-2,1.2-3.1-1-4.7-1.5C377.5,193.1,378.6,189.3,380.5,192z M368.6,149.5c1.8-0.4,4,1.3,4.9,3.4
			c0.2,0.4-1.2,2.1-1.9,2.1c-1.1,0.1-1.8-2.8-3.6,0C365.6,152.5,365.2,150.3,368.6,149.5z M380.9,235c-2.1,1.4-4.3,2.7-6,4.5
			c-2.7,2.7-0.5,4.8,1.3,6.7c0.7,0.7,2,0.9,2.5,2.4c-5.9,0.4-6.8-0.6-6-6.1c0.2-1.3-0.1-2.7,0.6-3.9c0.4-0.7,0.4-2-0.9-1.7
			c-1.4,0.3-2.4,0.3-2-1.3c0.4-1.5,2.1-2.6,3.4-1.7c2.6,1.8,3.8,1.8,4.6-1.6c0.1-0.7,1.6-2,3-1.5c0.9,0.3,1.5,1.1,1.7,2.2
			C383.2,234.7,381.7,234.4,380.9,235z M383.7,241.5c-2.5,0.5-3.9,2-5.7,0.9c-0.5-0.3-0.9-1.5-0.2-1.9
			C379.5,239.4,381.2,240.1,383.7,241.5z M366.4,232c-0.3-1.2,1.9-1.5,3.1-2.4c0.5,1.6-0.2,2.7-0.7,3.8c-0.9,1.8-1.5,3.2,0.7,4.5
			c0.7,0.4,1.6,1.2,1.2,2.3c-0.1,0.3-0.8,0.7-1.2,0.6c-1.2-0.2-2.7-0.2-3.1-1.4C365.6,237.1,367.1,234.6,366.4,232z M374.1,257.6
			c-3.9,1.6-4.6,1.2-4.3-3.3C370.9,256.2,372.9,256.2,374.1,257.6z M368.2,228.6c-1.2-3-0.7-5.8,0.5-8.5c0.4-1,1.3-1.5,2.4-1
			c1.4,0.6,3.3,1,3.2,2.9c0,1.2,0.5,2.3,0.5,4.4C370.6,222.6,370.4,227.4,368.2,228.6z M366.1,243.3c1.3,1.7,3.7-1.5,4.6,1.1
			c-0.5,1-1.3,1.9-2.2,1.5c-1.2-0.6-3.1,0-3.7-1.6C364.7,243.7,365.6,242.6,366.1,243.3z M359.7,254.1c-1.1-0.1-1.4-1.3-1.6-2.2
			c-0.2-1,0.3-1.8,1.3-1.8c1.3,0,1.4,1.1,1.4,2.2C360.6,253,361,254.3,359.7,254.1z M360.2,241.2c-0.5-1-0.6-2.1,0.2-2.7
			c1.4-1,2.3-2.3,3.6-4.1c0.8,2.4,0.7,4.2,0.6,6c-0.1,1.1-0.3,1.8-1.7,1.9C361.9,242.3,360.8,242.5,360.2,241.2z M366.1,276.1
			c-0.3-0.1-0.4-0.1-0.5-0.1c-1.4-1.3-2.4-2.8-1.8-4.8c0.2-0.7,1-0.9,1.5-0.3C366.6,272.4,366.8,274.2,366.1,276.1z M364.8,254.8
			c0.3-1.4,0.5-2.7,0.8-3.9c0.2-1.2,0.7-2.3,2.1-1.8c0.9,0.4,1.6,1.5,1.1,2.7C368.1,253.4,367.6,255.4,364.8,254.8z M367.6,263.5
			c2.2-1.9,4.7-3.8,9-3.1c-3,2.4-7.1,1.8-7.3,6.3C368,265.6,367,264.1,367.6,263.5z M372,270.6c-0.4,0.9-1,1.8-2.2,1.8
			c-0.8,0-1.5-0.5-1.5-1.3c0.1-1.7,1.7-1.4,2.7-1.7C371.6,269.2,372,269.7,372,270.6z M370.6,284.4c-1.6-0.1-2.1-1.3-2.3-2.7
			c-0.1-0.8-0.1-1.7,1.2-1.9c1.4,0.4,2.2,1.6,2.5,3C372.2,283.8,371.6,284.5,370.6,284.4z M375.4,266.8c-0.7,0-1.6,0-1.7-0.9
			c-0.2-1.4,1.1-0.9,1.5-1.3c1.1-0.1,1.8,0.1,1.8,1C377,266.5,376.2,266.7,375.4,266.8z M378.7,269.6c-0.8,0.1-1.5-0.6-1.3-1.4
			c0.4-1.2,0.9-2.7,2.4-2.8c0.8-0.1,1,0.9,1,1.8C380.7,268.4,380.2,269.5,378.7,269.6z M384.1,258c0.4,0.8-0.4,1-1,1.2
			c-1.1,0.3-2.2,0.7-3.1-0.1c-0.8-0.6-0.9-1.6-0.6-2.3c0.9-1.8,2.1-3.4,3.2-5c0.2-0.3,0.9-0.3,1.3-0.3c0.1,0,0.2,0.6,0.4,1
			C382.4,254.2,383.1,256.1,384.1,258z M387.5,215.2c4.5,2.3,1.3,3.3-0.5,4.7c2.5,1.8,2.1,5,3.4,7.4c0.8,1.5-3.2,5.1-5,4.7
			c-0.4-0.1-0.9-0.5-1.1-0.8c-0.5-0.8,0.2-1,0.7-1.3c0.9-0.5,2.2-1,1.7-2.4c-0.4-1.1-1.6,0-2.2-0.4c-3.7-1.8-6.2-0.7-7.6,3.4
			c-0.2-1.9-0.8-3.4,0.8-5.1c2-2.1,1-4.5-1.9-6c-2.1-2-5.1-2.6-7-4.9c-0.4-0.5-1.4-0.5-0.8-1.5c0.9-1.4,2-2.3,3.7-2.6
			c1.1-0.2,1.4,0.6,1.2,1.3c-0.8,3,1.3,4.6,2.9,6.5c1.1,0.2,2.4,0,3.1,0.6c2.5,1.8,5,1.6,7.7,0.8c-0.3-3.1-0.1-6.2-4.1-7.5
			c-1.9-0.6-2.5-2.9-3-4.8c-0.2-0.7,0.1-1.4,0.8-1.3c3.4,0.2,2.5-1.8,2-3.7c-0.4-1.9,1.1-3.4,1.4-5.2c0.2-0.9,1.1-1.2,2-0.4
			c3.2,2.8,3.7,0.6,3.7-2.1c0-1.5,0.2-2.4,1.9-3.1c1.7-0.6,2.9-2,0.7-3.7c-1-0.8-2-1.6-1.4-3c0.6-1.3,1.9-1.5,3.1-1.6
			c2.6-0.2,4.9-0.9,6.4-3.2c0.7-1.1,1.2-2.4,0-3.3c-1-0.8-2.2-2.1-3.9-1c-1.1,0.7-2.3,0.9-3.5,0.9c-0.6,0-1.6,0-1.6-0.6
			c0.4-4-2.6-7.2-2.3-11.1c0.1-1.1,0.7-1.9,1.9-1.8c1.5,0.2,0.8,1,0.7,2c-0.2,2.7,1.6,5.2,3.1,6.7c1.7,1.6,3.3-1.1,4.4-4.1
			c0.3,4,1,6.5,3.3,8.5c1.1,1,0.4,2.5-0.1,3.4c-0.9,1.7-1,3.3-0.4,5.1c1.7,5.5-2.3,8.6-5.5,11.6c-1.5,1.4-2.6,4-6.1,3
			c-2.3-0.6-2.4,3.5-4.2,5.2c-1.3,1.2,1.1,1.3,1.7,1.9c1.8,1.7,0.6,4.8,3.4,5.8c-1,0.8-2,0-2.7,0.3
			C387.1,212.9,385.7,214.3,387.5,215.2z M390.8,207.4c-1.1-1.3-1.1-3,0.5-4.1c1.8-1.2,3.8-2.1,6.5-1.7c-1.1,2.2-2.7,3.4-4.1,4.8
			C392.9,207.3,392,208.8,390.8,207.4z M468,203c-1,0-2-0.1-2.1-1.5c-0.1-0.9,0.4-1.5,1.2-1.4c1,0.2,2.2,0.5,2.5,1.7
			C469.5,203,468.8,203,468,203z M482.1,182.1c-0.5,0.3-1.6,0.4-1.9-0.4c-0.7-1.6,1.3-1.9,1.8-3.1
			C482.4,179.9,483.8,181.1,482.1,182.1z M618,203c-1-0.1-1.7-0.5-1.6-1.6c0-1.1,0.7-1.6,1.7-1.2c0.9,0.3,2,0.5,2,1.9
			C619.7,203.2,618.8,203,618,203z M632.6,182.1c-0.5,0.3-1.6,0.5-1.9-0.3c-0.8-1.6,1-2.1,1.8-3.9C633,179.8,634.1,181,632.6,182.1z
			 M775.9,270.3c-1.4-1.4-0.2-3.5-1.3-5c0,0,0.5-0.4,0.8-0.6c1,1.8,2,3.6,4.2,4.6c-0.8,0.7-1.2,1.2-1.8,1.6
			C776.9,271.4,776.3,270.8,775.9,270.3z M778.6,277.1c-1-0.1-1.6-0.6-1.4-1.6c0.2-0.6-0.4-1.6,0.5-1.8c1.1-0.2,1.6,0.7,1.8,1.8
			C779.7,276.2,779.5,276.9,778.6,277.1z M782,279.8c-1.6-7.5-1.6-7.7,1.5-9.8c0.6,1.9-0.2,4.5,2.1,4.6c1.5,0.1,1.1-2.1,0.5-3.9
			c2.6,1.2,2.9,3.4,2.9,4.8c0,1.4-2,1-3.4,0.8C783.2,276.3,784.3,279.9,782,279.8z M791,285.1c0.6,0.5,1.5,0.8,1.7,1.9
			c-1.4,0.9-3.1,0.2-4.7,1.1c-1.4,0.8-2.8-0.6-3-2.1c-0.2-1.9,1.2-1.6,2.4-1.3c1.2-2,0.8-6.4,4.3-4.9
			C795.5,281.2,790.3,283.1,791,285.1z M801.8,284.5c-2.4,0-1.9,1.5-1.7,3c0.1,1-0.8,1.1-1.5,1.2c-0.5,0.1-1.1-0.1-0.8-0.8
			c1.5-3.3-0.6-5.8-2.3-8.8c3.4,0.2,4.2,3.6,6.7,4.3C802.5,283.4,802.2,284.5,801.8,284.5z M805.2,285c-1.6-2-2.4-3.4-1.4-4.8
			c0.4-0.6,1.6-0.7,2.2,0.2C807.3,282.2,805.1,282.9,805.2,285z M857.1,211.3c-0.3,2.4-0.5,4-0.7,5.7c-0.1,1-0.3,2.1-1.7,1.8
			c-1.1-0.2-1.6-1.1-1.5-2.2C853.6,214.5,854.8,212.9,857.1,211.3z M843.6,185.8c0.1-0.5,1.4-1.2,1.6-1.1c1.4,0.9,1.6,2.3,1.3,4.3
			C845.4,187.8,843.2,188,843.6,185.8z M840.3,190c0.2-0.8,0.8-1.1,1.6-1c0.8,0.1,1.4,0.4,1.4,1.3c-0.3,1-1,1.4-1.9,1.2
			C840.7,191.4,840.1,190.9,840.3,190z M838.9,181.1c-0.9,0.5-0.9,1.8-1.5,1.1c-0.9-1.1-2.6-0.9-2.9-2.4c-0.1-0.5,0.7-0.8,1.1-0.6
			C836.7,179.7,838.1,179.8,838.9,181.1z M835.7,166.8c1.1,0.1,2.4,0.3,2.3,2.1c-0.1,1.7-0.9,3.4-2.3,3.4c-1.5,0-1.3-2.2-1.9-3.8
			C833.8,167.6,834.5,166.7,835.7,166.8z M833.1,156.7c2,2.7,1.8,3.7-1.7,5.4C833.2,160.2,832.7,158.6,833.1,156.7z M832.6,191.5
			c-0.5-0.8-0.8-1.7-1.2-2.6c-1.8-0.5-2.7-1.7-2.2-3.5c0.5-1.8,1.8-1.1,3-0.8c0.4,0.6,0.4,1.4,0.5,2.1c0,0.2,0,0.3,0,0.5
			c0.1,1.3,0.3,2.5,1.6,3.3c0.3,0.2,0.5,0.9,0,1.3C833.7,192.2,833,192,832.6,191.5z M837.2,201.6
			C837.2,201.6,837.2,201.5,837.2,201.6c-3.8-0.4-3.8-0.4-1.5-4.6C836.8,198.3,837.3,199.8,837.2,201.6
			C837.2,201.5,837.2,201.5,837.2,201.6C837.3,201.5,837.3,201.5,837.2,201.6c0.1-0.1,0.1,0,0.1,0c1.8-0.3,3.6-1.4,5.7,0.7
			c-2.3,0.5-4.2,2.1-5.7-0.7C837.3,201.6,837.2,201.6,837.2,201.6z M840.7,213.9L840.7,213.9L840.7,213.9c-0.1-0.3-0.3-0.7-0.3-1
			c-0.4-2.3,2.9-0.9,2.7-2.5c-0.2-1.3-2.3-2-1.2-4.6c1,2.1,2.4,3.2,3.3,4.6c2.5,4.1-1.9,3-3.4,4.1c-0.3,2.7-0.3,2.7-4,3.5
			C838.8,216.6,838.4,214.4,840.7,213.9z M838.9,224.7c0.5-0.9,1.6-0.4,2.3,0c1.6,1,3.3,1.2,5.2,1.2c1.3,0,2.7,1.1,2.7,2.7
			c-0.1,0.7-0.3,1.8-0.9,1.3c-2.5-2-6-0.3-8.4-2.8C839.1,226.4,838.5,225.5,838.9,224.7z M848.8,279.9c-0.8,0.2-2-0.1-2-1
			c-0.1-1.9,1.6-2.1,3-2.4c0.7-0.1,1.5-0.4,1.5,0.2C851.2,278.8,850.1,279.5,848.8,279.9z M845,269.1c2.7-1.5,5.2-1.4,8.2,1
			C849.9,270.7,847.6,269,845,269.1z M849.9,260.4c-0.5,1.7-1.5,2.4-3.5,1.4c1.2-0.9,0.2-3.3,2.5-3.3
			C849.8,258.5,850.2,259.4,849.9,260.4z M850.4,263c0.8,1.2,1.6,2.4,2.5,3.7C849.2,265.9,849.2,265.9,850.4,263z M853.3,256.6
			c0.2-0.9,0-1.7-0.5-2.4l-0.3,0.1c-2.8,1.2-5.4,0.7-7.9-0.6c-5.8-2,0.5-3.4-0.2-5.4c1.6,0.9,1.5,2.1,1.9,3c0.3,0,0.6-0.1,0.9-0.1
			c-0.5-1.3,0-2.8-0.8-4.1c-1.1-1.8,0.5-2.5,1.7-3.4c1.9,1.6-0.8,3.9,0.9,5.5c0.4-0.1,0.7-0.1,1.1-0.2c-0.4-2.3,1-3.4,2.9-2.8
			c2.5,0.7,2.9,0.1,2.7-2.3c-0.1-1.1,0.9-2.1,2-2.1c0.8-0.1,1.4,0.8,1.8,1.6c0.9,1.5-0.8,1.4-1.3,2c-1.9,2.3-4.2,4.3-4.8,7.4
			c0.1,0.2,0.2,0.4,0.2,0.6c0.6,1.1,1.7,1.8,2.5,2.7c0.6,0.6,2.2,0.5,1.7,1.9c-0.4,1-1.7,0.9-2.6,0.7
			C854.3,258.4,853,258.3,853.3,256.6z M845.1,237.6c0.2-1.1,0.3-2.3,1.1-2.1c2.2,0.4,3.6,0.4,4.2,2c0.3,0.8,1.8,2.5-0.9,2.1
			c-0.6-0.1-1.2,0.2-1.3,1c-0.1,1-0.4,2.4-1.5,1.7C845,241.2,844.8,239.4,845.1,237.6z M860.9,250.5c-1.3,0.6-1.8,2.7-3.7,1.7
			c-0.4-0.2-0.9-1-0.5-1.6C858,249.2,859.4,249.8,860.9,250.5z M860,270.5c-0.3,1.6-1.8,0.8-2.7,0.9c-1.1,0.1-1.1-1.1-0.9-1.9
			c0.2-0.9,0.3-2.2,1-2.7c2-1.5,3.3-3.5,4.9-5.6C861.2,264.3,860.6,267.4,860,270.5z M862.6,240.9c-0.5,0.6-0.7,2.1-2.1,1
			c-1.1-0.9-0.1-1.5,0.3-2.1c0.4-0.6,1-1.3,0.5-2c-0.6-0.9-1.3,0.1-1.9,0.1c-3.2-0.3-5,1-5.2,4.7c-2.2-2.8,1.6-8.1-4.3-8.3
			c-2.1,0-4.2,0.2-6.3-0.6c-0.8-0.3-1.2-0.3-1.2-1.3c0.1-1.1,0.7-1.8,1.5-2.4c0.7-0.6,1.6-0.2,1.8,0.4c1.1,3.4,4,2.3,6.3,2.6
			c2.3,0,4.5-0.2,5.9-2.4c-0.4-2.1-1.4-3.6-3.7-3.8c0,0,0,0,0,0.1c0,0-0.1-0.1-0.1-0.1c0,0,0.1,0,0.1,0c0.1-0.2,0.1-0.5,0.2-0.7
			c-1.7,0.5-3.4,1-5-0.4c-0.9-0.8-2.6-1.3-0.9-2.9c1.4-1.3-0.7-1.6-0.9-2.5c-1.5-0.4-2.5,0.3-3.5,1.3c-0.7,0.7-1.5,1.5-2.4,0.4
			c-1.1-1.2-0.5-2.5,0.3-3.6c0.7-1,1.5-0.9,2.4-0.2c0.5,0.5,1.1,0.9,1.7,1.3c0.1-1.9-2.1-4.7,1.9-5.2c0.2,0,0.5-1,0.3-1.3
			c-1.2-1.9-2.1-3.7-0.9-6c0.3-0.6-0.5-0.8-1.1-1.1c-3.3-1.3-3.3-1.9-0.7-4.2c2.3-2,4.3-4.1,2-7.4c-2-0.2-3.4,0.9-4.7,2.2
			c-1.1,1.2-2.2,1.3-3.2-0.2c-1-1.4-1.3-3.6-3.7-3.4c-0.5,0-0.5-0.5-0.2-0.6c2.3-1.1-0.9-4.2,1.9-5.1c0.7-0.2,1.5,0.4,1.2,0.8
			c-1.8,2.6,1.4,3.2,1.9,4.8c0.2,0.8,1.1,1.4,1.6,0.6c2.1-3.2,3.8-0.8,5.6,0.1c0.2-0.1,0.5,0.1,0.9,0.3c1.1,2.9,2.3,5.7,4.3,8.2
			c1.3,1.6-0.6,9.6-2.3,11.4c-0.7,0.8-0.5,6.7-0.1,6.5c2.9-1.6,4.1,1.8,6.3,1.9c1.1,0.1,1,0.8,0.2,1.3c-1.3,1.1-2,2.9,0.1,3.1
			c3.2,0.2,2.8,1.5,1.9,3.5c-0.2,0.4,0.1,0.9,0.1,1.4l0,0l0,0C864.4,235.2,865.3,237.7,862.6,240.9z M854,227L854,227
			C854.1,227.1,854.1,227.1,854,227c0.3,0.5,0.4,0.9,0.7,1.2c0.7,0.7,1.6,1.2,1.1,2.4c-0.4,0.8-1.2,0.7-1.9,0.7
			c-1.2-0.1-2.5-0.1-3.2-1.2c-0.4-0.6,0-1.1,0.5-1.5C852.2,228,853.1,227.6,854,227C854,227,854,227,854,227z M938,203
			c-1-0.1-1.7-0.5-1.6-1.6c0-1.1,0.7-1.6,1.7-1.2c0.9,0.3,2,0.5,2,1.9C939.7,203.2,938.8,203,938,203z M952.8,182
			c-0.4,0.4-1.5,0.6-2-0.1c-1.1-1.8,1.1-2.2,1.4-4C953.1,179.7,954,180.8,952.8,182z"/>
		<path fill="#7A3A15" d="M847.6,220.5c-0.2-0.2-0.4-0.3-0.6-0.3C847.2,220.3,847.4,220.4,847.6,220.5z"/>
	</g>
</g>
</svg>
